<svg height='100px' width='100px'  fill="#000000" xmlns="http://www.w3.org/2000/svg" xmlns:xlink="http://www.w3.org/1999/xlink" version="1.1" x="0px" y="0px" viewBox="0 0 100 100" style="enable-background:new 0 0 100 100;" xml:space="preserve"><g style="" display="none"><g style="" display="inline"><g><path d="M92.91,86.743H7.09c-1.154,0-2.09-0.936-2.09-2.09V15.347c0-1.154,0.936-2.09,2.09-2.09h85.82     c1.154,0,2.09,0.936,2.09,2.09v69.307C95,85.807,94.064,86.743,92.91,86.743z M9.179,82.564H90.82V17.436H9.179V82.564z"></path></g><g><path d="M82.633,29.958H17.368c-1.154,0-2.09-0.936-2.09-2.09s0.936-2.09,2.09-2.09h65.264c1.154,0,2.09,0.936,2.09,2.09     S83.787,29.958,82.633,29.958z"></path></g><g><path d="M82.633,41.609H17.368c-1.154,0-2.09-0.936-2.09-2.09s0.936-2.09,2.09-2.09h65.264c1.154,0,2.09,0.936,2.09,2.09     S83.787,41.609,82.633,41.609z"></path></g><g><path d="M82.633,53.259H17.368c-1.154,0-2.09-0.936-2.09-2.09s0.936-2.09,2.09-2.09h65.264c1.154,0,2.09,0.936,2.09,2.09     C84.722,52.323,83.787,53.259,82.633,53.259z"></path></g><g><path d="M32.744,71.134H17.368c-1.154,0-2.09-0.936-2.09-2.09s0.936-2.09,2.09-2.09h15.376c1.154,0,2.09,0.936,2.09,2.09     C34.834,70.198,33.898,71.134,32.744,71.134z"></path></g><g><path d="M82.633,71.134H67.256c-1.154,0-2.09-0.936-2.09-2.09s0.936-2.09,2.09-2.09h15.376c1.154,0,2.09,0.936,2.09,2.09     C84.722,70.198,83.787,71.134,82.633,71.134z"></path></g><path d="M56.109,71.639c1.836-1.691,2.996-4.107,2.996-6.794c0-5.1-4.15-9.248-9.249-9.248s-9.248,4.149-9.248,9.248    c0,2.687,1.159,5.103,2.995,6.794l-3.333,6.983l3.352-1.011l1.322,3.242l3.298-6.91c0.525,0.093,1.062,0.15,1.613,0.15    s1.088-0.057,1.613-0.15l3.298,6.91l1.322-3.242l3.352,1.011L56.109,71.639z M49.973,70.81c-0.039,0.001-0.078,0.006-0.117,0.006    c-0.04,0-0.078-0.005-0.117-0.006c-1.883-0.037-3.551-0.948-4.621-2.345c-0.77-1.006-1.234-2.258-1.234-3.62    c0-3.293,2.679-5.971,5.971-5.971c3.293,0,5.972,2.678,5.972,5.971c0,1.362-0.463,2.615-1.234,3.62    C53.524,69.862,51.856,70.773,49.973,70.81z"></path></g></g><g style="" display="none"><g style="" display="inline"><path d="M94.769,91.121L81.631,65.197c-0.028-0.056-0.07-0.101-0.102-0.153c-0.031-0.052-0.065-0.102-0.1-0.151    c-0.048-0.065-0.097-0.127-0.152-0.186c-0.02-0.022-0.036-0.048-0.057-0.07L63.836,47.254l4.99-4.99    c6.633,2.121,13.913,0.392,18.897-4.591c4.439-4.439,6.344-10.773,5.092-16.941c-0.156-0.771-0.723-1.393-1.476-1.62    c-0.75-0.225-1.569-0.021-2.125,0.535l-7.293,7.292l-7.799-2.09l-2.088-7.799l7.292-7.292c0.556-0.556,0.761-1.372,0.535-2.125    c-0.226-0.752-0.849-1.32-1.62-1.476c-6.169-1.253-12.503,0.651-16.942,5.091c-4.982,4.983-6.712,12.265-4.592,18.897l-4.99,4.99    L26.531,9.95c-0.834-0.834-2.184-0.834-3.018,0L10.728,22.735c-0.834,0.833-0.834,2.185,0,3.018l25.186,25.186l-6.548,6.548    c-6.635-2.12-13.916-0.392-18.897,4.592c-4.44,4.439-6.343,10.773-5.091,16.941c0.156,0.771,0.723,1.392,1.476,1.62    c0.752,0.225,1.568,0.021,2.125-0.535l7.651-7.65l7.799,2.089l2.09,7.798l-7.652,7.652c-0.556,0.555-0.761,1.372-0.535,2.125    c0.227,0.753,0.849,1.32,1.619,1.476c1.249,0.254,2.504,0.378,3.75,0.378c4.905,0,9.651-1.927,13.192-5.468    c4.983-4.983,6.712-12.265,4.591-18.898l6.548-6.548L65.415,80.44c0.026,0.026,0.057,0.044,0.084,0.068    c0.05,0.046,0.103,0.088,0.158,0.129c0.063,0.047,0.127,0.09,0.194,0.129c0.044,0.026,0.08,0.061,0.126,0.084l25.924,13.138    c0.306,0.156,0.636,0.231,0.964,0.231c0.554,0,1.101-0.216,1.51-0.625C95.027,92.942,95.187,91.944,94.769,91.121z M60.684,32.205    c0.606-0.606,0.791-1.517,0.468-2.312c-2.186-5.384-0.943-11.517,3.165-15.626c2.348-2.348,5.383-3.776,8.594-4.131l-4.767,4.767    c-0.54,0.539-0.75,1.325-0.553,2.061l2.726,10.179c0.198,0.737,0.773,1.312,1.509,1.51l10.18,2.728    c0.734,0.195,1.522-0.013,2.062-0.553l4.767-4.766c-0.355,3.211-1.783,6.245-4.131,8.592c-4.109,4.109-10.24,5.352-15.626,3.164    c-0.793-0.321-1.704-0.139-2.312,0.469l-5.949,5.948l-6.082-6.082L60.684,32.205z M37.507,67.546    c-0.607,0.606-0.791,1.517-0.469,2.312c2.186,5.384,0.945,11.518-3.164,15.627c-2.348,2.348-5.383,3.776-8.593,4.131l5.126-5.126    c0.54-0.54,0.75-1.324,0.553-2.062l-2.728-10.179c-0.198-0.736-0.773-1.311-1.509-1.509l-10.18-2.728    c-0.183-0.049-0.369-0.073-0.553-0.073c-0.559,0-1.104,0.219-1.509,0.625l-5.125,5.125c0.355-3.21,1.783-6.245,4.13-8.592    c4.108-4.108,10.241-5.349,15.626-3.165c0.793,0.324,1.706,0.138,2.312-0.468l7.507-7.507l6.082,6.082L37.507,67.546z     M15.256,24.244l9.766-9.766l51.67,51.669l-9.768,9.767L15.256,24.244z M79.155,69.753l6.479,12.784l-2.317,2.317l-12.784-6.479    L79.155,69.753z"></path></g></g><g style="" display="none"><g style="" display="inline"><path d="M22.135,92.358H5V69.261c0-0.552,0.448-1,1-1h15.135c0.552,0,1,0.448,1,1V92.358z"></path><path d="M46.424,92.358H29.288V57.203c0-0.552,0.448-1,1-1h15.135c0.552,0,1,0.448,1,1L46.424,92.358L46.424,92.358z"></path><path d="M70.712,92.358H53.576V49.164c0-0.552,0.448-1,1-1h15.135c0.552,0,1,0.448,1,1L70.712,92.358L70.712,92.358z"></path><path d="M95,92.358H77.865V27.299c0-0.552,0.448-1,1-1H94c0.552,0,1,0.448,1,1V92.358z"></path><path d="M86.432,7.642L71.893,7.929l2.683,4.441l-62.085,37.5c-0.985,0.595-1.301,1.875-0.706,2.86    c0.391,0.648,1.08,1.007,1.785,1.007c0.367,0,0.738-0.098,1.075-0.301l62.085-37.5l2.682,4.441L86.432,7.642z"></path></g></g><g style="" display="none"><g style="" display="inline"><path d="M82.166,32.063L66.393,5.975C66.027,5.37,65.371,5,64.664,5H35.336c-0.707,0-1.363,0.37-1.729,0.975L17.835,32.063    c-0.191,0.315-0.291,0.677-0.291,1.045V92.62c0,0.901,0.594,1.655,1.408,1.915V95h7.11c1.11,0,2.013-0.904,2.013-2.013    s-0.903-2.013-2.013-2.013h-4.478V33.671L36.475,9.04h27.049l14.892,24.631v57.302h-4.535c-1.11,0-2.013,0.904-2.013,2.013    S72.771,95,73.881,95h7.212v-0.479c0.791-0.274,1.363-1.017,1.363-1.901V33.108C82.457,32.74,82.356,32.378,82.166,32.063z"></path><circle cx="50" cy="19.521" r="4.081"></circle><path d="M56.498,90.974h-2.849c-1.11,0-2.013,0.904-2.013,2.013S52.539,95,53.649,95h2.849c1.11,0,2.013-0.904,2.013-2.013    S57.607,90.974,56.498,90.974z"></path><path d="M66.63,90.974h-2.849c-1.11,0-2.013,0.904-2.013,2.013S62.672,95,63.782,95h2.849c1.11,0,2.013-0.904,2.013-2.013    S67.74,90.974,66.63,90.974z"></path><path d="M36.194,90.974h-2.849c-1.11,0-2.013,0.904-2.013,2.013S32.236,95,33.345,95h2.849c1.11,0,2.013-0.904,2.013-2.013    S37.304,90.974,36.194,90.974z"></path><path d="M46.293,90.974h-2.849c-1.11,0-2.012,0.904-2.012,2.013S42.335,95,43.445,95h2.849c1.11,0,2.013-0.904,2.013-2.013    S47.403,90.974,46.293,90.974z"></path><path d="M38.295,41.256c-2.362,0-4.445,0.854-6.248,2.561c-1.771,1.708-2.657,3.719-2.657,6.032c0,2.41,0.862,4.485,2.585,6.224    c1.739,1.74,3.821,2.609,6.248,2.609c2.473,0,4.587-0.853,6.343-2.561c1.755-1.707,2.633-3.758,2.633-6.152    c0-2.378-0.878-4.42-2.633-6.128C42.81,42.117,40.72,41.256,38.295,41.256z M41.646,53.32c-0.926,0.926-2.035,1.388-3.327,1.388    c-1.325,0-2.45-0.463-3.375-1.388c-0.926-0.925-1.388-2.059-1.388-3.399c0-1.26,0.463-2.354,1.388-3.279s2.042-1.388,3.351-1.388    c1.308,0,2.425,0.463,3.351,1.388c0.925,0.926,1.388,2.035,1.388,3.327C43.034,51.278,42.571,52.395,41.646,53.32z"></path><path d="M61.681,61.531c-2.362,0-4.445,0.854-6.248,2.561c-1.771,1.708-2.657,3.71-2.657,6.008c0,2.442,0.862,4.524,2.585,6.248    c1.739,1.723,3.821,2.585,6.248,2.585c2.49,0,4.604-0.845,6.343-2.537c1.771-1.691,2.657-3.742,2.657-6.152    c0-2.377-0.878-4.42-2.633-6.128C66.221,62.392,64.123,61.531,61.681,61.531z M65.033,73.595c-0.91,0.926-2.019,1.388-3.327,1.388    c-1.325,0-2.45-0.463-3.375-1.388c-0.91-0.925-1.364-2.059-1.364-3.399c0-1.276,0.463-2.377,1.388-3.303    c0.925-0.925,2.035-1.388,3.327-1.388c1.324,0,2.442,0.463,3.351,1.388c0.925,0.926,1.388,2.043,1.388,3.351    C66.421,71.553,65.958,72.67,65.033,73.595z"></path><path d="M61.604,39.962c-0.977-0.562-2.224-0.228-2.787,0.748L37.658,77.39c-0.563,0.976-0.228,2.224,0.748,2.787    c0.321,0.185,0.672,0.273,1.017,0.273c0.705,0,1.392-0.366,1.77-1.021l21.159-36.681C62.915,41.773,62.579,40.526,61.604,39.962z"></path></g></g><g style="" display="none"><g style="" display="inline"><path d="M17.426,53.507C10.574,53.507,5,59.082,5,65.933c0,4.317,2.216,8.123,5.567,10.351v12.329c0,0.727,0.421,1.386,1.08,1.693    c0.658,0.306,1.435,0.203,1.99-0.266l3.789-3.192l3.789,3.192c0.343,0.29,0.771,0.44,1.204,0.44c0.267,0,0.535-0.057,0.787-0.174    c0.659-0.307,1.08-0.967,1.08-1.693V76.284c3.351-2.228,5.567-6.034,5.567-10.351C29.852,59.082,24.277,53.507,17.426,53.507z     M20.55,84.598l-1.921-1.618c-0.695-0.586-1.711-0.586-2.406,0l-1.921,1.618v-6.653c1,0.261,2.044,0.414,3.124,0.414    s2.124-0.153,3.124-0.414C20.55,77.945,20.55,84.598,20.55,84.598z M17.426,74.624c-4.792,0-8.691-3.899-8.691-8.691    s3.899-8.692,8.691-8.692s8.691,3.9,8.691,8.692S22.218,74.624,17.426,74.624z"></path><path d="M95,65.933c0-6.851-5.575-12.426-12.426-12.426c-6.851,0-12.425,5.575-12.425,12.426c0,4.317,2.216,8.124,5.567,10.351    v12.329c0,0.727,0.422,1.386,1.08,1.693c0.659,0.306,1.434,0.203,1.991-0.266l3.788-3.192l3.789,3.192    c0.344,0.29,0.772,0.44,1.204,0.44c0.267,0,0.536-0.057,0.788-0.174c0.659-0.307,1.08-0.967,1.08-1.693V76.284    C92.784,74.056,95,70.25,95,65.933z M85.699,84.599l-1.921-1.619c-0.696-0.586-1.711-0.586-2.407,0l-1.92,1.618v-6.653    c1,0.26,2.043,0.413,3.124,0.413s2.124-0.153,3.125-0.414v6.655H85.699z M82.574,74.624c-4.792,0-8.691-3.899-8.691-8.691    s3.899-8.692,8.691-8.692c4.793,0,8.692,3.9,8.692,8.692S87.367,74.624,82.574,74.624z"></path><path d="M78.136,43.991l-3.951-7.465l3.526-7.675c0.464-1.01,0.038-2.205-0.961-2.693l-7.588-3.715l-1.659-8.283    c-0.218-1.09-1.268-1.805-2.36-1.614L56.824,14l-6.213-5.721c-0.817-0.751-2.083-0.716-2.856,0.08l-5.882,6.06l-8.388-0.971    c-1.095-0.122-2.105,0.645-2.262,1.743l-1.197,8.359l-7.358,4.144c-0.967,0.545-1.324,1.76-0.805,2.741l3.95,7.465l-3.525,7.675    c-0.464,1.01-0.037,2.205,0.96,2.693l7.588,3.714l1.659,8.283c0.218,1.089,1.26,1.808,2.36,1.614l3.801-0.664v28.999    c0,0.839,0.511,1.592,1.291,1.902c0.778,0.31,1.668,0.113,2.244-0.496L50,83.364l7.809,8.258c0.395,0.417,0.936,0.641,1.487,0.641    c0.255,0,0.512-0.047,0.757-0.145c0.78-0.31,1.291-1.064,1.291-1.902V60.38l5.171,0.599c1.113,0.14,2.106-0.646,2.262-1.743    l1.197-8.359l7.358-4.144C78.298,46.187,78.655,44.972,78.136,43.991z M65.006,56.682l-7.41-0.858    c-0.638-0.081-1.263,0.151-1.705,0.608l-5.196,5.353l-5.489-5.055c-0.381-0.351-0.878-0.541-1.387-0.541    c-0.117,0-0.235,0.01-0.352,0.031l-7.348,1.284l-1.465-7.317c-0.125-0.625-0.534-1.157-1.107-1.437l-6.703-3.281l3.113-6.778    c0.266-0.579,0.247-1.249-0.051-1.812l-3.49-6.596l6.5-3.661c0.554-0.312,0.932-0.864,1.022-1.493l1.057-7.385l7.411,0.858    c0.633,0.075,1.262-0.151,1.704-0.608l5.196-5.353l5.489,5.055c0.469,0.431,1.108,0.621,1.739,0.511l7.347-1.285l1.466,7.317    c0.125,0.625,0.535,1.156,1.108,1.436l6.702,3.281l-3.114,6.778c-0.266,0.579-0.247,1.249,0.051,1.812l3.491,6.596l-6.5,3.661    c-0.554,0.312-0.932,0.864-1.022,1.494L65.006,56.682z M51.487,78.978c-0.774-0.818-2.202-0.818-2.975,0l-5.761,6.093v-24.57    l0.424-0.074l6.213,5.722c0.393,0.362,0.89,0.541,1.386,0.541c0.535,0,1.069-0.208,1.469-0.622l5.005-5.156v24.159L51.487,78.978z    "></path></g></g><g style="" display="none"><g style="" display="inline"><path d="M73.877,47.619c3.6-0.211,6.725-1.653,9.286-4.326c8.799-9.183,8.025-29.791,7.988-30.663    c-0.036-0.823-0.713-1.472-1.537-1.472H79.361c0.036-1.598,0.054-3.147,0.054-4.62C79.414,5.688,78.726,5,77.877,5H22.44    c-0.849,0-1.538,0.688-1.538,1.538c0,1.523,0.016,3.066,0.048,4.62H10.385c-0.824,0-1.501,0.649-1.536,1.472    c-0.038,0.873-0.812,21.48,7.988,30.663c2.591,2.704,5.759,4.148,9.413,4.332c3.652,10.584,9.588,18.587,18.994,20.666    l-0.714,8.475h-4.657c-0.849,0-1.538,0.689-1.538,1.538v5.915h-7.804c-0.849,0-1.538,0.689-1.538,1.538v7.706    c0,0.849,0.688,1.538,1.538,1.538h38.938c0.849,0,1.538-0.689,1.538-1.538v-7.706c0-0.849-0.689-1.538-1.538-1.538h-7.804v-5.915    c0-0.849-0.689-1.538-1.538-1.538h-4.339l-0.717-8.492C64.431,66.132,70.271,57.929,73.877,47.619z M67.931,91.924H32.068v-4.63    h7.665c0.046,0.004,0.091,0.014,0.139,0.014h20.254c0.048,0,0.092-0.01,0.139-0.014h7.665L67.931,91.924L67.931,91.924z     M58.589,84.218H41.41v-4.377h17.179V84.218z M88.101,14.233c0.004,4.792-0.525,20.013-7.161,26.935    c-1.735,1.81-3.726,2.877-6.037,3.254c2.853-9.64,3.998-20.657,4.364-30.189C79.267,14.233,88.101,14.233,88.101,14.233z     M19.06,41.168c-6.636-6.922-7.165-22.143-7.16-26.935h9.136c0.365,10.353,1.549,21.051,4.214,30.211    C22.875,44.09,20.834,43.018,19.06,41.168z M23.983,8.076h52.35c-0.306,46.789-14.596,56.079-23.151,57.432    c-0.796,0.126-1.36,0.845-1.293,1.648l0.81,9.602h-5.083l0.808-9.594c0.068-0.806-0.501-1.528-1.301-1.649    C27.475,62.519,24.135,28.941,23.983,8.076z"></path><polygon points="50,39.979 56.543,44.733 54.044,37.041 60.588,32.287 52.499,32.287 50,24.594 47.5,32.287 39.412,32.287     45.956,37.041 43.456,44.733   "></polygon></g></g><g style="" display="none"><g style="" display="inline"><path d="M93.414,14.397H6.586C5.71,14.397,5,15.106,5,15.982v59.701c0,0.875,0.71,1.586,1.586,1.586h37.946    c-1.383,3.854-7.518,5.181-7.585,5.195c-0.798,0.162-1.343,0.902-1.261,1.713c0.082,0.81,0.763,1.427,1.577,1.427h25.475    c0.815,0,1.496-0.616,1.577-1.427c0.082-0.81-0.464-1.551-1.261-1.713c-0.071-0.015-6.21-1.321-7.588-5.195h37.948    c0.875,0,1.586-0.71,1.586-1.586V15.982C95,15.106,94.29,14.397,93.414,14.397z M55.522,82.432H44.478    c1.578-1.241,2.922-2.922,3.36-5.163h4.323C52.6,79.51,53.944,81.191,55.522,82.432z M91.828,74.097H53.597h-7.194H8.172v-6.498    h83.657L91.828,74.097L91.828,74.097z M91.828,64.428H8.172v-46.86h83.657L91.828,64.428L91.828,64.428z"></path><polygon points="48.644,56.629 51.213,39.353 36.813,49.236 44.602,49.934   "></polygon><path d="M51.226,36.41c0.554,0,1.005-0.45,1.005-1.005v-5.803c0-0.555-0.45-1.005-1.005-1.005s-1.005,0.45-1.005,1.005v5.803    C50.222,35.961,50.672,36.41,51.226,36.41z"></path><path d="M47.5,38.374c0.172,0.116,0.367,0.171,0.559,0.171c0.323,0,0.641-0.156,0.835-0.444c0.309-0.46,0.187-1.084-0.274-1.394    l-4.816-3.238c-0.46-0.31-1.083-0.187-1.394,0.274c-0.309,0.46-0.187,1.084,0.274,1.394L47.5,38.374z"></path><path d="M58.373,45.683c0.172,0.116,0.366,0.171,0.56,0.171c0.323,0,0.641-0.156,0.834-0.444c0.31-0.46,0.188-1.085-0.273-1.394    l-4.815-3.237c-0.46-0.309-1.084-0.187-1.394,0.273s-0.188,1.085,0.273,1.394L58.373,45.683z"></path><path d="M54.128,38.614c0.194,0,0.391-0.056,0.564-0.174l4.799-3.263c0.458-0.312,0.578-0.936,0.265-1.395    c-0.312-0.459-0.937-0.579-1.395-0.266l-4.799,3.263c-0.458,0.312-0.578,0.936-0.265,1.395    C53.491,38.461,53.806,38.614,54.128,38.614z"></path></g></g><g style="" display="none"><g style="" display="inline"><path d="M93.414,14.396H6.586C5.71,14.396,5,15.107,5,15.982v59.7c0,0.876,0.71,1.586,1.586,1.586h37.946    c-1.383,3.855-7.518,5.181-7.585,5.195c-0.798,0.163-1.343,0.902-1.261,1.713c0.081,0.81,0.764,1.427,1.578,1.427h25.474    c0.813,0,1.494-0.616,1.577-1.424c0.083-0.809-0.462-1.549-1.258-1.715c-0.07-0.014-6.204-1.341-7.587-5.195h37.945    c0.876,0,1.586-0.71,1.586-1.586v-59.7C95,15.107,94.29,14.396,93.414,14.396z M55.522,82.432H44.478    c1.578-1.241,2.923-2.921,3.361-5.163h4.323C52.599,79.51,53.944,81.191,55.522,82.432z M91.828,74.097H53.597h-7.193H8.172V67.6    h83.656C91.828,67.6,91.828,74.097,91.828,74.097z M91.828,64.428H8.172v-46.86h83.656C91.828,17.568,91.828,64.428,91.828,64.428    z"></path></g></g><g style="" display="none"><g style="" display="inline"><g><path d="M79.509,95H20.491c-2.114,0-3.835-1.72-3.835-3.835V8.835C16.656,6.72,18.376,5,20.491,5H79.51     c2.114,0,3.835,1.72,3.835,3.835v82.331C83.344,93.28,81.624,95,79.509,95z M20.491,8.287c-0.302,0-0.548,0.246-0.548,0.548     v82.331c0,0.302,0.246,0.548,0.548,0.548H79.51c0.302,0,0.548-0.246,0.548-0.548V8.835c0-0.302-0.246-0.548-0.548-0.548H20.491z"></path></g><g><circle cx="50.137" cy="86.335" r="3.022"></circle></g><g><path d="M74.608,81.25H25.392c-0.605,0-1.096-0.49-1.096-1.096V13.565c0-0.605,0.491-1.096,1.096-1.096h49.216     c0.606,0,1.096,0.491,1.096,1.096v66.589C75.704,80.76,75.214,81.25,74.608,81.25z M26.488,79.059h47.025V14.661H26.488V79.059z"></path></g></g></g><g style="" display="none"><g style="" display="inline"><path d="M71.943,5H28.057c-1.123,0-2.034,0.911-2.034,2.034v85.932c0,1.123,0.911,2.034,2.034,2.034h43.886    c1.123,0,2.034-0.911,2.034-2.034V7.034C73.977,5.911,73.066,5,71.943,5z M69.909,9.068v7.778H30.091V9.068H69.909z     M69.909,19.897v58.758H30.091V19.897H69.909z M30.091,90.932v-9.227h39.818v9.227H30.091z"></path><circle cx="50" cy="86.573" r="2.285"></circle><path d="M45.976,13.72h8.048c0.562,0,1.017-0.455,1.017-1.017s-0.455-1.017-1.017-1.017h-8.048c-0.562,0-1.017,0.455-1.017,1.017    C44.959,13.264,45.415,13.72,45.976,13.72z"></path></g></g><g style="" display="none"><g style="" display="inline"><path d="M89.735,26.045h-4.418c-0.168-1.292-1.261-2.293-2.598-2.293h-7.723c-1.338,0-2.43,1.001-2.598,2.293h-4.816v-5.152    c0-3.176-2.584-5.759-5.76-5.759H38.179c-3.176,0-5.759,2.584-5.759,5.759v5.152h-6.865c-0.168-1.292-1.261-2.293-2.598-2.293    h-7.722c-1.338,0-2.43,1.001-2.598,2.293h-2.371C7.362,26.045,5,28.407,5,31.31v48.291c0,2.903,2.362,5.265,5.265,5.265h79.469    c2.903,0,5.265-2.362,5.265-5.265V31.31C95,28.407,92.638,26.045,89.735,26.045z M36.632,20.893c0-0.853,0.694-1.547,1.547-1.547    H61.82c0.854,0,1.548,0.694,1.548,1.547v5.152H36.632V20.893z M90.788,79.601c0,0.581-0.472,1.053-1.053,1.053h-79.47    c-0.581,0-1.053-0.472-1.053-1.053V31.31c0-0.581,0.473-1.053,1.053-1.053h79.469c0.581,0,1.053,0.473,1.053,1.053L90.788,79.601    L90.788,79.601z"></path></g></g><g style="" display="none"><g style="" display="inline"><path d="M89.735,26.045H67.58v-5.152c0-3.176-2.583-5.759-5.759-5.759H38.179c-3.176,0-5.759,2.583-5.759,5.759v5.152H10.265    C7.362,26.045,5,28.407,5,31.31v48.291c0,2.903,2.362,5.265,5.265,5.265h79.47c2.903,0,5.265-2.362,5.265-5.265V31.31    C95,28.407,92.638,26.045,89.735,26.045z M36.632,20.893c0-0.853,0.694-1.547,1.547-1.547h23.642c0.853,0,1.547,0.694,1.547,1.547    v5.152H36.632V20.893z M10.265,30.257h79.47c0.581,0,1.053,0.473,1.053,1.053v22.039H60.914v-0.723    c0-2.216-1.803-4.018-4.019-4.018h-13.79c-2.216,0-4.019,1.803-4.019,4.018v0.723H9.212V31.31    C9.212,30.729,9.685,30.257,10.265,30.257z M56.702,52.821v5.27H43.298v-5.27H56.702z M89.735,80.654h-79.47    c-0.581,0-1.053-0.472-1.053-1.053v-22.04h29.874v0.723c0,2.216,1.803,4.019,4.019,4.019h13.79c2.216,0,4.019-1.803,4.019-4.019    v-0.723h29.874v22.04C90.788,80.182,90.316,80.654,89.735,80.654z"></path></g></g><g style="" display="none"><g style="" display="inline"><path d="M89.735,26.045H67.58v-5.152c0-3.176-2.583-5.759-5.759-5.759H38.179c-3.176,0-5.759,2.583-5.759,5.759v5.152H10.265    C7.362,26.045,5,28.407,5,31.31v48.291c0,2.903,2.362,5.265,5.265,5.265h79.47c2.903,0,5.265-2.362,5.265-5.265V31.31    C95,28.407,92.638,26.045,89.735,26.045z M36.632,20.893c0-0.853,0.694-1.547,1.547-1.547h23.642c0.853,0,1.547,0.694,1.547,1.547    v5.152H36.632V20.893z M10.265,30.257h79.47c0.581,0,1.053,0.473,1.053,1.053v5.702H9.212V31.31    C9.212,30.729,9.685,30.257,10.265,30.257z M89.735,80.654h-79.47c-0.581,0-1.053-0.472-1.053-1.053V41.224h81.576v38.377    C90.788,80.182,90.316,80.654,89.735,80.654z"></path><path d="M40.996,47.894H18.584c-2.323,0-4.212,1.89-4.212,4.212v16.673c0,2.323,1.89,4.212,4.212,4.212h22.412    c2.323,0,4.212-1.889,4.212-4.212V52.106C45.208,49.783,43.318,47.894,40.996,47.894z M40.996,52.106l0.001,4.388H18.584v-4.388    H40.996z M18.584,68.779v-8.073h22.413l0.001,8.073H18.584z"></path><path d="M81.415,47.894H59.004c-2.323,0-4.212,1.89-4.212,4.212v16.673c0,2.323,1.889,4.212,4.212,4.212h22.411    c2.323,0,4.212-1.889,4.212-4.212V52.106C85.628,49.783,83.738,47.894,81.415,47.894z M81.415,52.106l0.001,4.475H59.004v-4.475    H81.415z M59.004,68.779v-7.985h22.413l0.001,7.985H59.004z"></path></g></g><g style="" display="none"><path style="" d="M88.693,13.617H76.157V8.941C76.157,6.768,74.389,5,72.216,5h-5.009   c-2.173,0-3.94,1.768-3.94,3.941v4.676H36.734V8.941C36.734,6.768,34.966,5,32.793,5h-5.009c-2.173,0-3.941,1.768-3.941,3.941   v4.676H11.307c-2.701,0-4.898,2.197-4.898,4.898V37.19v52.912c0,2.701,2.197,4.898,4.898,4.898h77.387   c2.701,0,4.898-2.197,4.898-4.898V37.19V18.515C93.592,15.814,91.395,13.617,88.693,13.617z M66.139,8.941   c0-0.589,0.479-1.068,1.068-1.068h5.009c0.589,0,1.069,0.479,1.069,1.068v11.721c0,0.59-0.48,1.069-1.069,1.069h-5.009   c-0.589,0-1.068-0.479-1.068-1.069V8.941z M26.716,8.941c0-0.589,0.479-1.068,1.068-1.068h5.009c0.589,0,1.069,0.479,1.069,1.068   v11.721c0,0.59-0.48,1.069-1.069,1.069h-5.009c-0.589,0-1.068-0.479-1.068-1.069V8.941z M88.805,90.102   c0,0.062-0.05,0.111-0.111,0.111H11.307c-0.061,0-0.111-0.05-0.111-0.111V37.19h77.609V90.102z" display="inline"></path></g><g style="" display="none"><g style="" display="inline"><path style="" d="M78.67,17.314h-9.574v-0.358c0-2.149-1.748-3.898-3.897-3.898h-5.036    C59.197,8.41,55.075,5,50.249,5c-4.827,0-8.948,3.409-9.914,8.059h-5.532c-2.149,0-3.897,1.748-3.897,3.898v0.358H21.33    c-2.149,0-3.898,1.748-3.898,3.897v69.892c0,2.149,1.748,3.897,3.898,3.897h57.34c2.149,0,3.897-1.748,3.897-3.897V21.211    C82.567,19.062,80.819,17.314,78.67,17.314z M34.803,16.889h6.319c1.466,0,2.702-1.086,2.877-2.526    c0.383-3.154,3.071-5.532,6.251-5.532s5.867,2.379,6.251,5.532c0.175,1.44,1.411,2.527,2.877,2.527l5.89,0.068l-0.067,4.658    l-30.463-0.067L34.803,16.889z M78.738,91.103c0,0.037-0.03,0.067-0.067,0.067l-57.408-0.067l0.068-69.959l9.575,0.011v0.392    c0,2.149,1.748,3.897,3.897,3.897h30.396c2.149,0,3.897-1.748,3.897-3.897V21.2l9.642,0.011V91.103z" fill="#000000"></path><g><circle style="" cx="50.124" cy="15.118" r="1.982" fill="#000000"></circle></g></g></g><g style="" display="none"><g style="" display="inline"><g><path style="" d="M81.914,95H18.086c-2.108,0-3.823-1.714-3.823-3.823V8.823C14.264,6.715,15.979,5,18.086,5h63.827     c2.108,0,3.823,1.715,3.823,3.823v82.355C85.736,93.286,84.022,95,81.914,95z M18.086,8.823v82.355h63.83L81.914,8.823H18.086z" fill="#000000"></path></g><g><path style="" d="M73.858,35.324H26.141c-2.108,0-3.823-1.715-3.823-3.823V16.14c0-2.108,1.715-3.823,3.823-3.823     h47.717c2.108,0,3.823,1.715,3.823,3.823v15.361C77.681,33.609,75.966,35.324,73.858,35.324z M26.141,16.14v15.361H73.86     L73.858,16.14H26.141z" fill="#000000"></path></g><g><path style="" d="M34.645,48.062h-9.459c-0.528,0-0.956-0.428-0.956-0.956V43.22c0-0.528,0.428-0.956,0.956-0.956     h9.459c0.528,0,0.956,0.428,0.956,0.956v3.887C35.6,47.634,35.172,48.062,34.645,48.062z" fill="#000000"></path></g><g><path style="" d="M74.814,48.062h-9.459c-0.528,0-0.956-0.428-0.956-0.956V43.22c0-0.528,0.428-0.956,0.956-0.956     h9.459c0.528,0,0.956,0.428,0.956,0.956v3.887C75.77,47.634,75.342,48.062,74.814,48.062z" fill="#000000"></path></g><g><path style="" d="M54.729,48.062H45.27c-0.528,0-0.956-0.428-0.956-0.956V43.22c0-0.528,0.428-0.956,0.956-0.956     h9.459c0.528,0,0.956,0.428,0.956,0.956v3.887C55.685,47.634,55.257,48.062,54.729,48.062z" fill="#000000"></path></g><g><path style="" d="M34.645,60.997h-9.459c-0.528,0-0.956-0.428-0.956-0.956v-3.887c0-0.528,0.428-0.956,0.956-0.956     h9.459c0.528,0,0.956,0.428,0.956,0.956v3.887C35.6,60.569,35.172,60.997,34.645,60.997z" fill="#000000"></path></g><g><path style="" d="M74.814,60.997h-9.459c-0.528,0-0.956-0.428-0.956-0.956v-3.887c0-0.528,0.428-0.956,0.956-0.956     h9.459c0.528,0,0.956,0.428,0.956,0.956v3.887C75.77,60.569,75.342,60.997,74.814,60.997z" fill="#000000"></path></g><g><path style="" d="M54.729,60.997H45.27c-0.528,0-0.956-0.428-0.956-0.956v-3.887c0-0.528,0.428-0.956,0.956-0.956     h9.459c0.528,0,0.956,0.428,0.956,0.956v3.887C55.685,60.569,55.257,60.997,54.729,60.997z" fill="#000000"></path></g><g><path style="" d="M34.645,73.931h-9.459c-0.528,0-0.956-0.428-0.956-0.956v-3.887c0-0.528,0.428-0.956,0.956-0.956     h9.459c0.528,0,0.956,0.428,0.956,0.956v3.887C35.6,73.503,35.172,73.931,34.645,73.931z" fill="#000000"></path></g><g><path style="" d="M54.729,73.931H45.27c-0.528,0-0.956-0.428-0.956-0.956v-3.887c0-0.528,0.428-0.956,0.956-0.956     h9.459c0.528,0,0.956,0.428,0.956,0.956v3.887C55.685,73.503,55.257,73.931,54.729,73.931z" fill="#000000"></path></g><g><path style="" d="M34.645,86.866h-9.459c-0.528,0-0.956-0.428-0.956-0.956v-3.887c0-0.528,0.428-0.956,0.956-0.956     h9.459c0.528,0,0.956,0.428,0.956,0.956v3.887C35.6,86.438,35.172,86.866,34.645,86.866z" fill="#000000"></path></g><g><path style="" d="M54.729,86.866H45.27c-0.528,0-0.956-0.428-0.956-0.956v-3.887c0-0.528,0.428-0.956,0.956-0.956     h9.459c0.528,0,0.956,0.428,0.956,0.956v3.887C55.685,86.438,55.257,86.866,54.729,86.866z" fill="#000000"></path></g><g><path style="" d="M74.814,86.866h-9.459c-0.528,0-0.956-0.428-0.956-0.956V69.089c0-0.528,0.428-0.956,0.956-0.956     h9.459c0.528,0,0.956,0.428,0.956,0.956V85.91C75.77,86.438,75.342,86.866,74.814,86.866z" fill="#000000"></path></g></g></g><g style="" display="none"><g style="" display="inline"><path style="" d="M91.177,41.403H33.006c0.303-3.941,3.599-7.057,7.616-7.057h18.756    c6.324,0,11.469-5.145,11.469-11.469v-5.734c0-1.056-0.856-1.911-1.911-1.911s-1.911,0.856-1.911,1.911v5.734    c0,4.216-3.43,7.646-7.646,7.646H40.622c-6.125,0-11.129,4.83-11.439,10.88H8.823C6.715,41.403,5,43.118,5,45.226v35.719    c0,2.108,1.715,3.823,3.823,3.823h82.354c2.108,0,3.823-1.714,3.823-3.823V45.226C95,43.118,93.286,41.403,91.177,41.403z     M8.823,80.945V45.226h82.354l0.003,35.719C91.18,80.945,8.823,80.945,8.823,80.945z" fill="#000000"></path><path style="" d="M18.902,49.889h-0.921c-1.583,0-2.867,1.284-2.867,2.867v0.921c0,1.583,1.284,2.867,2.867,2.867    h0.921c1.583,0,2.867-1.284,2.867-2.867v-0.921C21.769,51.172,20.486,49.889,18.902,49.889z" fill="#000000"></path><path style="" d="M30.604,56.544h0.921c1.583,0,2.867-1.284,2.867-2.867v-0.921c0-1.583-1.284-2.867-2.867-2.867    h-0.921c-1.583,0-2.867,1.284-2.867,2.867v0.921C27.737,55.261,29.021,56.544,30.604,56.544z" fill="#000000"></path><path style="" d="M43.228,56.544h0.921c1.583,0,2.867-1.284,2.867-2.867v-0.921c0-1.583-1.284-2.867-2.867-2.867    h-0.921c-1.583,0-2.867,1.284-2.867,2.867v0.921C40.361,55.261,41.644,56.544,43.228,56.544z" fill="#000000"></path><path style="" d="M55.851,56.544h0.921c1.583,0,2.867-1.284,2.867-2.867v-0.921c0-1.583-1.284-2.867-2.867-2.867    h-0.921c-1.583,0-2.867,1.284-2.867,2.867v0.921C52.984,55.261,54.268,56.544,55.851,56.544z" fill="#000000"></path><path style="" d="M69.396,49.889h-0.921c-1.583,0-2.867,1.284-2.867,2.867v0.921c0,1.583,1.284,2.867,2.867,2.867    h0.921c1.583,0,2.867-1.284,2.867-2.867v-0.921C72.263,51.172,70.979,49.889,69.396,49.889z" fill="#000000"></path><path style="" d="M82.019,49.889h-0.921c-1.583,0-2.867,1.284-2.867,2.867v0.921c0,1.583,1.284,2.867,2.867,2.867    h0.921c1.583,0,2.867-1.284,2.867-2.867v-0.921C84.887,51.172,83.603,49.889,82.019,49.889z" fill="#000000"></path><path style="" d="M18.902,60.08h-0.921c-1.583,0-2.867,1.284-2.867,2.867v0.921c0,1.583,1.284,2.867,2.867,2.867    h0.921c1.583,0,2.867-1.284,2.867-2.867v-0.921C21.769,61.363,20.486,60.08,18.902,60.08z" fill="#000000"></path><path style="" d="M30.604,66.735h0.921c1.583,0,2.867-1.284,2.867-2.867v-0.921c0-1.583-1.284-2.867-2.867-2.867    h-0.921c-1.583,0-2.867,1.284-2.867,2.867v0.921C27.737,65.452,29.021,66.735,30.604,66.735z" fill="#000000"></path><path style="" d="M43.228,66.735h0.921c1.583,0,2.867-1.284,2.867-2.867v-0.921c0-1.583-1.284-2.867-2.867-2.867    h-0.921c-1.583,0-2.867,1.284-2.867,2.867v0.921C40.361,65.452,41.644,66.735,43.228,66.735z" fill="#000000"></path><path style="" d="M55.851,66.735h0.921c1.583,0,2.867-1.284,2.867-2.867v-0.921c0-1.583-1.284-2.867-2.867-2.867    h-0.921c-1.583,0-2.867,1.284-2.867,2.867v0.921C52.984,65.452,54.268,66.735,55.851,66.735z" fill="#000000"></path><path style="" d="M69.396,60.08h-0.921c-1.583,0-2.867,1.284-2.867,2.867v0.921c0,1.583,1.284,2.867,2.867,2.867    h0.921c1.583,0,2.867-1.284,2.867-2.867v-0.921C72.263,61.363,70.979,60.08,69.396,60.08z" fill="#000000"></path><path style="" d="M82.019,60.08h-0.921c-1.583,0-2.867,1.284-2.867,2.867v0.921c0,1.583,1.284,2.867,2.867,2.867    h0.921c1.583,0,2.867-1.284,2.867-2.867v-0.921C84.887,61.363,83.603,60.08,82.019,60.08z" fill="#000000"></path><path style="" d="M18.902,70.27h-0.921c-1.583,0-2.867,1.284-2.867,2.867v0.921c0,1.583,1.284,2.867,2.867,2.867    h0.921c1.583,0,2.867-1.284,2.867-2.867v-0.921C21.769,71.554,20.486,70.27,18.902,70.27z" fill="#000000"></path><path style="" d="M70.352,70.27H29.649c-1.056,0-1.911,0.856-1.911,1.911v2.833c0,1.056,0.856,1.911,1.911,1.911    h40.703c1.056,0,1.911-0.856,1.911-1.911v-2.833C72.263,71.126,71.407,70.27,70.352,70.27z" fill="#000000"></path><path style="" d="M82.019,70.27h-0.921c-1.583,0-2.867,1.284-2.867,2.867v0.921c0,1.583,1.284,2.867,2.867,2.867    h0.921c1.583,0,2.867-1.284,2.867-2.867v-0.921C84.887,71.554,83.603,70.27,82.019,70.27z" fill="#000000"></path></g></g><g style="" display="none"><path style="" d="M52.45,5h-4.9C34.245,5,23.42,15.825,23.42,29.13v41.164   C23.42,86.514,36.791,95,50,95s26.58-8.486,26.58-24.705V29.13C76.58,15.825,65.756,5,52.45,5z M72.751,70.295   c0,14.344-11.793,20.876-22.751,20.876c-10.957,0-22.751-6.532-22.751-20.876V29.13c0-11.194,9.107-20.301,20.301-20.301h1.493   v10.614c-1.113,0.396-1.915,1.448-1.915,2.696v9.645c0,1.586,1.286,2.872,2.872,2.872s2.872-1.286,2.872-2.872V22.14   c0-1.249-0.802-2.3-1.914-2.696V8.829h1.493c11.193,0,20.3,9.107,20.3,20.301C72.751,29.13,72.751,70.295,72.751,70.295z" display="inline" fill="#000000"></path></g><g style="" display="none"><g style="" display="inline"><path style="" d="M93.085,23.919H6.915C5.857,23.919,5,24.776,5,25.834c0,1.057,0.857,1.915,1.915,1.915h1.654    v44.503c0,2.112,1.718,3.83,3.83,3.83h75.202c2.112,0,3.83-1.718,3.83-3.83V27.749h1.654c1.057,0,1.915-0.857,1.915-1.915    C95,24.776,94.143,23.919,93.085,23.919z M87.601,72.251H12.399V27.749h75.202C87.601,27.749,87.601,72.251,87.601,72.251z" fill="#000000"></path><path style="" d="M32.367,64.542c6.864,0,12.429-5.565,12.429-12.429H32.367V39.685    c-6.864,0-12.429,5.565-12.429,12.429S25.502,64.542,32.367,64.542z" fill="#000000"></path><path style="" d="M34.999,37.052v12.429h12.429C47.428,42.616,41.864,37.052,34.999,37.052z" fill="#000000"></path><path style="" d="M59.256,48.487h-3.83c-0.529,0-0.957,0.429-0.957,0.957v13.244h5.745V49.445    C60.213,48.916,59.784,48.487,59.256,48.487z" fill="#000000"></path><path style="" d="M67.952,43.696h-3.83c-0.529,0-0.957,0.429-0.957,0.957v18.036h5.745V44.653    C68.91,44.124,68.481,43.696,67.952,43.696z" fill="#000000"></path><path style="" d="M76.649,37.947h-3.83c-0.529,0-0.957,0.429-0.957,0.957v23.785h5.745V38.904    C77.606,38.375,77.177,37.947,76.649,37.947z" fill="#000000"></path></g></g><g style="" display="none"><g style="" display="inline"><path d="M68.518,69.76v3.282h-2.96v-3.165c-2.813-0.087-5.011-0.82-6.916-2.754l2.638-2.638c1.231,1.231,2.9,1.7,4.659,1.758    V60.94l-0.938-0.117c-1.758-0.235-3.165-0.88-4.045-1.758c-0.996-0.997-1.494-2.316-1.494-4.074c0-3.37,2.286-5.861,6.096-6.271    v-2.637h2.96v2.607c2.374,0.146,4.19,0.88,5.773,2.403l-2.578,2.549c-0.967-0.938-2.403-1.319-3.604-1.406v5.099l1.113,0.175    c1.904,0.293,3.106,0.82,3.985,1.641c1.113,1.055,1.612,2.549,1.612,4.396C74.818,67.124,72.18,69.321,68.518,69.76z     M65.939,52.267c-1.7,0.235-2.549,1.289-2.549,2.578c0,0.528,0.175,1.084,0.615,1.494c0.469,0.44,1.114,0.703,1.935,0.82    L65.939,52.267L65.939,52.267z M70.188,61.908c-0.586-0.557-1.318-0.645-2.08-0.762v5.041c1.758-0.206,2.725-1.084,2.725-2.52    C70.832,62.932,70.628,62.318,70.188,61.908z"></path><path style="" d="M66.73,31.294c-5.114,0-9.911,1.372-14.054,3.756V19.543h-0.024    c-0.5-5.81-15.113-7.375-23.814-7.375S5.524,13.733,5.024,19.543H5v51.642c0,3.037,2.769,5.329,8.23,6.812    c4.143,1.126,9.686,1.745,15.609,1.745c2.352,0,10.242-0.151,16.309-1.95c5.19,6.135,12.937,10.04,21.583,10.04    c15.588,0,28.27-12.682,28.27-28.27S82.318,31.294,66.73,31.294z M28.838,15.835c12.247,0,19.597,2.622,20.156,3.991    c-0.599,1.428-7.94,4.036-20.156,4.036c-12.249,0-19.599-2.622-20.157-3.992C9.283,18.442,16.624,15.835,28.838,15.835z     M8.668,24.276c5.005,2.48,14.051,3.254,20.171,3.254s15.166-0.774,20.171-3.254v5.49c0,1.998-7.183,4.889-20.171,4.889    S8.668,31.764,8.668,29.766V24.276z M8.668,34.803c1.224,0.678,2.728,1.276,4.562,1.774c4.143,1.125,9.686,1.745,15.609,1.745    c2.902,0,14.239-0.223,20.171-3.499v2.736c-2.07,1.671-3.899,3.627-5.43,5.809c-3.412,0.944-8.372,1.642-14.741,1.642    c-12.988,0-20.171-2.891-20.171-4.89C8.668,40.12,8.668,34.803,8.668,34.803z M8.668,45.158c1.224,0.679,2.728,1.276,4.562,1.775    c4.143,1.125,9.686,1.745,15.609,1.745c1.852,0,7.134-0.096,12.257-1.013c-1.026,2.202-1.775,4.557-2.205,7.021    c-2.809,0.417-6.164,0.68-10.052,0.68c-12.988,0-20.171-2.891-20.171-4.891C8.668,50.475,8.668,45.158,8.668,45.158z     M8.668,55.513c1.224,0.678,2.728,1.276,4.562,1.774c4.143,1.125,9.686,1.745,15.609,1.745c1.537,0,5.439-0.066,9.651-0.613    c-0.015,0.38-0.029,0.759-0.029,1.143c0,1.869,0.187,3.694,0.535,5.462c-2.83,0.426-6.22,0.696-10.157,0.696    c-12.988,0-20.171-2.893-20.171-4.891C8.668,60.829,8.668,55.513,8.668,55.513z M28.838,76.075    c-12.988,0-20.171-2.891-20.171-4.89v-5.317c1.224,0.679,2.728,1.276,4.562,1.775c4.143,1.125,9.686,1.745,15.609,1.745    c1.712,0,6.359-0.083,11.101-0.821c0.723,2.145,1.695,4.175,2.885,6.057C39.45,75.468,34.763,76.075,28.838,76.075z M66.73,84.165    c-13.565,0-24.602-11.037-24.602-24.602S53.165,34.961,66.73,34.961s24.602,11.036,24.602,24.602S80.296,84.165,66.73,84.165z" fill="#000000"></path><g><path style="" d="M60.025,80.28c-0.966-0.318-1.492-1.356-1.174-2.31l0,0c0.306-0.966,1.344-1.504,2.31-1.185     h-0.012c0.966,0.306,1.503,1.344,1.185,2.31l0,0c-0.245,0.77-0.966,1.271-1.748,1.271l0,0     C60.403,80.366,60.207,80.341,60.025,80.28z M71.16,79.083c-0.306-0.966,0.208-1.992,1.174-2.311l0,0     c0.966-0.318,2.006,0.221,2.311,1.174l0,0c0.318,0.966-0.208,2.006-1.174,2.311l0,0c-0.184,0.061-0.38,0.098-0.562,0.098l0,0     C72.138,80.354,71.417,79.865,71.16,79.083z M49.144,72.383c-0.599-0.819-0.415-1.967,0.391-2.555l0,0     c0.82-0.599,1.968-0.427,2.567,0.392l0,0c0.599,0.819,0.415,1.967-0.392,2.567l0,0c-0.329,0.233-0.709,0.355-1.088,0.355l0,0     C50.061,73.141,49.499,72.873,49.144,72.383z M81.784,72.75c-0.819-0.586-1.003-1.736-0.404-2.555l0,0     c0.586-0.819,1.736-1.002,2.555-0.404l0,0c0.819,0.587,1.003,1.736,0.404,2.556l0,0c-0.355,0.5-0.917,0.757-1.479,0.757l0,0     C82.48,73.104,82.102,72.995,81.784,72.75z M44.963,59.608c0-1.014,0.819-1.834,1.834-1.834l0,0c1.015,0,1.834,0.807,1.834,1.822     l0,0c0,1.015-0.819,1.834-1.822,1.846l0,0C45.795,61.442,44.963,60.623,44.963,59.608z M84.829,59.584c0-0.037,0-0.061,0-0.098     l0,0c-0.013-1.015,0.806-1.834,1.821-1.846l0,0c1.015,0,1.834,0.819,1.847,1.834l0,0c0,0.012,0,0.037,0,0.049l0,0     c0,0.012,0,0.024,0,0.036l0,0l0,0l0,0c0,1.015-0.82,1.834-1.834,1.834l0,0C85.648,61.393,84.84,60.587,84.829,59.584z      M48.631,59.596L48.631,59.596L48.631,59.596L48.631,59.596z M49.499,49.377c-0.819-0.599-1.002-1.748-0.415-2.567l0,0l0,0l0,0     c0.599-0.819,1.748-1.002,2.567-0.403l0,0c0.819,0.587,1.003,1.736,0.404,2.555l0,0c-0.355,0.501-0.917,0.758-1.479,0.758l0,0     C50.195,49.719,49.829,49.609,49.499,49.377z M81.332,48.875L81.332,48.875c-0.599-0.819-0.427-1.968,0.392-2.567l0,0     c0.819-0.599,1.967-0.428,2.567,0.391l0,0c0.599,0.819,0.415,1.968-0.392,2.567l0,0c-0.329,0.244-0.709,0.355-1.088,0.355l0,0     C82.249,49.621,81.686,49.365,81.332,48.875z M58.765,41.186c-0.306-0.954,0.208-1.993,1.174-2.311l0,0l0,0l0,0     c0.966-0.318,2.004,0.208,2.31,1.174l0,0c0.319,0.966-0.208,1.992-1.162,2.311l0,0c-0.195,0.061-0.39,0.097-0.574,0.097l0,0     C59.743,42.457,59.022,41.968,58.765,41.186z M72.273,42.323c-0.966-0.306-1.503-1.332-1.197-2.298l0,0     c0.318-0.966,1.344-1.504,2.31-1.186l0,0c0.966,0.306,1.491,1.345,1.185,2.299l0,0c-0.245,0.782-0.966,1.283-1.748,1.283l0,0     C72.64,42.421,72.457,42.384,72.273,42.323z" fill="#000000"></path></g></g></g><g style="" display="none"><g style="" display="inline"><g><path d="M70.588,57.45h2.785v2.497h-4.066l-0.832,1.633v1.665h4.898v2.497h-4.898v5.218h-3.458v-5.218h-4.898v-2.497h4.898V61.58     l-0.832-1.633h-4.066V57.45h2.785l-4.706-9.284h3.778l4.802,10.052l4.738-10.052h3.745L70.588,57.45z"></path></g><path style="" d="M66.73,31.294c-5.114,0-9.911,1.372-14.054,3.756V19.543h-0.024    c-0.5-5.81-15.113-7.375-23.814-7.375S5.524,13.733,5.024,19.543H5v51.642c0,3.037,2.769,5.329,8.23,6.812    c4.143,1.126,9.686,1.745,15.609,1.745c2.352,0,10.242-0.151,16.309-1.95c5.19,6.135,12.937,10.04,21.583,10.04    c15.588,0,28.27-12.682,28.27-28.27S82.318,31.294,66.73,31.294z M28.838,15.835c12.247,0,19.597,2.622,20.156,3.991    c-0.599,1.428-7.94,4.036-20.156,4.036c-12.249,0-19.599-2.622-20.157-3.992C9.283,18.442,16.624,15.835,28.838,15.835z     M8.668,24.276c5.005,2.48,14.051,3.254,20.171,3.254s15.166-0.774,20.171-3.254v5.49c0,1.998-7.183,4.889-20.171,4.889    S8.668,31.764,8.668,29.766V24.276z M8.668,34.803c1.224,0.678,2.728,1.276,4.562,1.774c4.143,1.125,9.686,1.745,15.609,1.745    c2.902,0,14.239-0.223,20.171-3.499v2.736c-2.07,1.671-3.899,3.627-5.43,5.809c-3.412,0.944-8.372,1.642-14.741,1.642    c-12.988,0-20.171-2.891-20.171-4.89C8.668,40.12,8.668,34.803,8.668,34.803z M8.668,45.158c1.224,0.679,2.728,1.276,4.562,1.775    c4.143,1.125,9.686,1.745,15.609,1.745c1.852,0,7.134-0.096,12.257-1.013c-1.026,2.202-1.775,4.557-2.205,7.021    c-2.809,0.417-6.164,0.68-10.052,0.68c-12.988,0-20.171-2.891-20.171-4.891C8.668,50.475,8.668,45.158,8.668,45.158z     M8.668,55.513c1.224,0.678,2.728,1.276,4.562,1.774c4.143,1.125,9.686,1.745,15.609,1.745c1.537,0,5.439-0.066,9.651-0.613    c-0.015,0.38-0.029,0.759-0.029,1.143c0,1.869,0.187,3.694,0.535,5.462c-2.83,0.426-6.22,0.696-10.157,0.696    c-12.988,0-20.171-2.893-20.171-4.891C8.668,60.829,8.668,55.513,8.668,55.513z M28.838,76.075    c-12.988,0-20.171-2.891-20.171-4.89v-5.317c1.224,0.679,2.728,1.276,4.562,1.775c4.143,1.125,9.686,1.745,15.609,1.745    c1.712,0,6.359-0.083,11.101-0.821c0.723,2.145,1.695,4.175,2.885,6.057C39.45,75.468,34.763,76.075,28.838,76.075z M66.73,84.165    c-13.565,0-24.602-11.037-24.602-24.602S53.165,34.961,66.73,34.961s24.602,11.036,24.602,24.602S80.296,84.165,66.73,84.165z" fill="#000000"></path><g><path style="" d="M60.025,80.28c-0.966-0.318-1.492-1.356-1.174-2.31l0,0c0.306-0.966,1.344-1.504,2.31-1.185     h-0.012c0.966,0.306,1.503,1.344,1.185,2.31l0,0c-0.245,0.77-0.966,1.271-1.748,1.271l0,0     C60.403,80.366,60.207,80.341,60.025,80.28z M71.16,79.083c-0.306-0.966,0.208-1.992,1.174-2.311l0,0     c0.966-0.318,2.006,0.221,2.311,1.174l0,0c0.318,0.966-0.208,2.006-1.174,2.311l0,0c-0.184,0.061-0.38,0.098-0.562,0.098l0,0     C72.138,80.354,71.417,79.865,71.16,79.083z M49.144,72.383c-0.599-0.819-0.415-1.967,0.391-2.555l0,0     c0.82-0.599,1.968-0.427,2.567,0.392l0,0c0.599,0.819,0.415,1.967-0.392,2.567l0,0c-0.329,0.233-0.709,0.355-1.088,0.355l0,0     C50.061,73.141,49.499,72.873,49.144,72.383z M81.784,72.75c-0.819-0.586-1.003-1.736-0.404-2.555l0,0     c0.586-0.819,1.736-1.002,2.555-0.404l0,0c0.819,0.587,1.003,1.736,0.404,2.556l0,0c-0.355,0.5-0.917,0.757-1.479,0.757l0,0     C82.48,73.104,82.102,72.995,81.784,72.75z M44.963,59.608c0-1.014,0.819-1.834,1.834-1.834l0,0c1.015,0,1.834,0.807,1.834,1.822     l0,0c0,1.015-0.819,1.834-1.822,1.846l0,0C45.795,61.442,44.963,60.623,44.963,59.608z M84.829,59.584c0-0.037,0-0.061,0-0.098     l0,0c-0.013-1.015,0.806-1.834,1.821-1.846l0,0c1.015,0,1.834,0.819,1.847,1.834l0,0c0,0.012,0,0.037,0,0.049l0,0     c0,0.012,0,0.024,0,0.036l0,0l0,0l0,0c0,1.015-0.82,1.834-1.834,1.834l0,0C85.648,61.393,84.84,60.587,84.829,59.584z      M48.631,59.596L48.631,59.596L48.631,59.596L48.631,59.596z M49.499,49.377c-0.819-0.599-1.002-1.748-0.415-2.567l0,0l0,0l0,0     c0.599-0.819,1.748-1.002,2.567-0.403l0,0c0.819,0.587,1.003,1.736,0.404,2.555l0,0c-0.355,0.501-0.917,0.758-1.479,0.758l0,0     C50.195,49.719,49.829,49.609,49.499,49.377z M81.332,48.875L81.332,48.875c-0.599-0.819-0.427-1.968,0.392-2.567l0,0     c0.819-0.599,1.967-0.428,2.567,0.391l0,0c0.599,0.819,0.415,1.968-0.392,2.567l0,0c-0.329,0.244-0.709,0.355-1.088,0.355l0,0     C82.249,49.621,81.686,49.365,81.332,48.875z M58.765,41.186c-0.306-0.954,0.208-1.993,1.174-2.311l0,0l0,0l0,0     c0.966-0.318,2.004,0.208,2.31,1.174l0,0c0.319,0.966-0.208,1.992-1.162,2.311l0,0c-0.195,0.061-0.39,0.097-0.574,0.097l0,0     C59.743,42.457,59.022,41.968,58.765,41.186z M72.273,42.323c-0.966-0.306-1.503-1.332-1.197-2.298l0,0     c0.318-0.966,1.344-1.504,2.31-1.186l0,0c0.966,0.306,1.491,1.345,1.185,2.299l0,0c-0.245,0.782-0.966,1.283-1.748,1.283l0,0     C72.64,42.421,72.457,42.384,72.273,42.323z" fill="#000000"></path></g></g></g><g style="" display="none"><g style="" display="inline"><g><path d="M69.04,68.877v4.165h-3.029v-4.203c-4.051-0.681-6.929-4.013-6.929-9.654c0-5.642,2.877-8.974,6.929-9.655v-3.446h3.029     v3.408c2.158,0.265,3.748,1.098,5.338,2.802l-2.575,2.499c-0.985-1.098-1.855-1.628-3.105-1.817v12.419     c1.25-0.189,2.12-0.719,3.105-1.817l2.575,2.499C72.788,67.779,71.198,68.613,69.04,68.877z M66.351,53.051     c-0.909,0.189-1.628,0.719-2.196,1.477c-0.795,1.098-1.212,2.423-1.212,4.657c0,2.196,0.379,3.559,1.174,4.657     c0.568,0.757,1.325,1.287,2.234,1.476V53.051z"></path></g><path style="" d="M66.73,31.294c-5.114,0-9.911,1.372-14.054,3.756V19.543h-0.024    c-0.5-5.81-15.113-7.375-23.814-7.375S5.524,13.733,5.024,19.543H5v51.642c0,3.037,2.769,5.329,8.23,6.812    c4.143,1.126,9.686,1.745,15.609,1.745c2.352,0,10.242-0.151,16.309-1.95c5.19,6.135,12.937,10.04,21.583,10.04    c15.588,0,28.27-12.682,28.27-28.27S82.318,31.294,66.73,31.294z M28.838,15.835c12.247,0,19.597,2.622,20.156,3.991    c-0.599,1.428-7.94,4.036-20.156,4.036c-12.249,0-19.599-2.622-20.157-3.992C9.283,18.442,16.624,15.835,28.838,15.835z     M8.668,24.276c5.005,2.48,14.051,3.254,20.171,3.254s15.166-0.774,20.171-3.254v5.49c0,1.998-7.183,4.889-20.171,4.889    S8.668,31.764,8.668,29.766V24.276z M8.668,34.803c1.224,0.678,2.728,1.276,4.562,1.774c4.143,1.125,9.686,1.745,15.609,1.745    c2.902,0,14.239-0.223,20.171-3.499v2.736c-2.07,1.671-3.899,3.627-5.43,5.809c-3.412,0.944-8.372,1.642-14.741,1.642    c-12.988,0-20.171-2.891-20.171-4.89C8.668,40.12,8.668,34.803,8.668,34.803z M8.668,45.158c1.224,0.679,2.728,1.276,4.562,1.775    c4.143,1.125,9.686,1.745,15.609,1.745c1.852,0,7.134-0.096,12.257-1.013c-1.026,2.202-1.775,4.557-2.205,7.021    c-2.809,0.417-6.164,0.68-10.052,0.68c-12.988,0-20.171-2.891-20.171-4.891C8.668,50.475,8.668,45.158,8.668,45.158z     M8.668,55.513c1.224,0.678,2.728,1.276,4.562,1.774c4.143,1.125,9.686,1.745,15.609,1.745c1.537,0,5.439-0.066,9.651-0.613    c-0.015,0.38-0.029,0.759-0.029,1.143c0,1.869,0.187,3.694,0.535,5.462c-2.83,0.426-6.22,0.696-10.157,0.696    c-12.988,0-20.171-2.893-20.171-4.891C8.668,60.829,8.668,55.513,8.668,55.513z M28.838,76.075    c-12.988,0-20.171-2.891-20.171-4.89v-5.317c1.224,0.679,2.728,1.276,4.562,1.775c4.143,1.125,9.686,1.745,15.609,1.745    c1.712,0,6.359-0.083,11.101-0.821c0.723,2.145,1.695,4.175,2.885,6.057C39.45,75.468,34.763,76.075,28.838,76.075z M66.73,84.165    c-13.565,0-24.602-11.037-24.602-24.602S53.165,34.961,66.73,34.961s24.602,11.036,24.602,24.602S80.296,84.165,66.73,84.165z" fill="#000000"></path><g><path style="" d="M60.025,80.28c-0.966-0.318-1.492-1.356-1.174-2.31l0,0c0.306-0.966,1.344-1.504,2.31-1.185     h-0.012c0.966,0.306,1.503,1.344,1.185,2.31l0,0c-0.245,0.77-0.966,1.271-1.748,1.271l0,0     C60.403,80.366,60.207,80.341,60.025,80.28z M71.16,79.083c-0.306-0.966,0.208-1.992,1.174-2.311l0,0     c0.966-0.318,2.006,0.221,2.311,1.174l0,0c0.318,0.966-0.208,2.006-1.174,2.311l0,0c-0.184,0.061-0.38,0.098-0.562,0.098l0,0     C72.138,80.354,71.417,79.865,71.16,79.083z M49.144,72.383c-0.599-0.819-0.415-1.967,0.391-2.555l0,0     c0.82-0.599,1.968-0.427,2.567,0.392l0,0c0.599,0.819,0.415,1.967-0.392,2.567l0,0c-0.329,0.233-0.709,0.355-1.088,0.355l0,0     C50.061,73.141,49.499,72.873,49.144,72.383z M81.784,72.75c-0.819-0.586-1.003-1.736-0.404-2.555l0,0     c0.586-0.819,1.736-1.002,2.555-0.404l0,0c0.819,0.587,1.003,1.736,0.404,2.556l0,0c-0.355,0.5-0.917,0.757-1.479,0.757l0,0     C82.48,73.104,82.102,72.995,81.784,72.75z M44.963,59.608c0-1.014,0.819-1.834,1.834-1.834l0,0c1.015,0,1.834,0.807,1.834,1.822     l0,0c0,1.015-0.819,1.834-1.822,1.846l0,0C45.795,61.442,44.963,60.623,44.963,59.608z M84.829,59.584c0-0.037,0-0.061,0-0.098     l0,0c-0.013-1.015,0.806-1.834,1.821-1.846l0,0c1.015,0,1.834,0.819,1.847,1.834l0,0c0,0.012,0,0.037,0,0.049l0,0     c0,0.012,0,0.024,0,0.036l0,0l0,0l0,0c0,1.015-0.82,1.834-1.834,1.834l0,0C85.648,61.393,84.84,60.587,84.829,59.584z      M48.631,59.596L48.631,59.596L48.631,59.596L48.631,59.596z M49.499,49.377c-0.819-0.599-1.002-1.748-0.415-2.567l0,0l0,0l0,0     c0.599-0.819,1.748-1.002,2.567-0.403l0,0c0.819,0.587,1.003,1.736,0.404,2.555l0,0c-0.355,0.501-0.917,0.758-1.479,0.758l0,0     C50.195,49.719,49.829,49.609,49.499,49.377z M81.332,48.875L81.332,48.875c-0.599-0.819-0.427-1.968,0.392-2.567l0,0     c0.819-0.599,1.967-0.428,2.567,0.391l0,0c0.599,0.819,0.415,1.968-0.392,2.567l0,0c-0.329,0.244-0.709,0.355-1.088,0.355l0,0     C82.249,49.621,81.686,49.365,81.332,48.875z M58.765,41.186c-0.306-0.954,0.208-1.993,1.174-2.311l0,0l0,0l0,0     c0.966-0.318,2.004,0.208,2.31,1.174l0,0c0.319,0.966-0.208,1.992-1.162,2.311l0,0c-0.195,0.061-0.39,0.097-0.574,0.097l0,0     C59.743,42.457,59.022,41.968,58.765,41.186z M72.273,42.323c-0.966-0.306-1.503-1.332-1.197-2.298l0,0     c0.318-0.966,1.344-1.504,2.31-1.186l0,0c0.966,0.306,1.491,1.345,1.185,2.299l0,0c-0.245,0.782-0.966,1.283-1.748,1.283l0,0     C72.64,42.421,72.457,42.384,72.273,42.323z" fill="#000000"></path></g></g></g><g style="" display="none"><g style="" display="inline"><path style="" d="M66.73,31.294c-5.114,0-9.911,1.372-14.054,3.756V19.543h-0.024    c-0.5-5.81-15.113-7.375-23.814-7.375S5.524,13.733,5.024,19.543H5v51.642c0,3.037,2.769,5.329,8.23,6.812    c4.143,1.126,9.686,1.745,15.609,1.745c2.352,0,10.242-0.151,16.309-1.95c5.19,6.135,12.937,10.04,21.583,10.04    c15.588,0,28.27-12.682,28.27-28.27S82.318,31.294,66.73,31.294z M28.838,15.835c12.247,0,19.597,2.622,20.156,3.991    c-0.599,1.428-7.94,4.036-20.156,4.036c-12.249,0-19.599-2.622-20.157-3.992C9.283,18.442,16.624,15.835,28.838,15.835z     M8.668,24.276c5.005,2.48,14.051,3.254,20.171,3.254s15.166-0.774,20.171-3.254v5.49c0,1.998-7.183,4.889-20.171,4.889    S8.668,31.764,8.668,29.766V24.276z M8.668,34.803c1.224,0.678,2.728,1.276,4.562,1.774c4.143,1.125,9.686,1.745,15.609,1.745    c2.902,0,14.239-0.223,20.171-3.499v2.736c-2.07,1.671-3.899,3.627-5.43,5.809c-3.412,0.944-8.372,1.642-14.741,1.642    c-12.988,0-20.171-2.891-20.171-4.89C8.668,40.12,8.668,34.803,8.668,34.803z M8.668,45.158c1.224,0.679,2.728,1.276,4.562,1.775    c4.143,1.125,9.686,1.745,15.609,1.745c1.852,0,7.134-0.096,12.257-1.013c-1.026,2.202-1.775,4.557-2.205,7.021    c-2.809,0.417-6.164,0.68-10.052,0.68c-12.988,0-20.171-2.891-20.171-4.891C8.668,50.475,8.668,45.158,8.668,45.158z     M8.668,55.513c1.224,0.678,2.728,1.276,4.562,1.774c4.143,1.125,9.686,1.745,15.609,1.745c1.537,0,5.439-0.066,9.651-0.613    c-0.015,0.38-0.029,0.759-0.029,1.143c0,1.869,0.187,3.694,0.535,5.462c-2.83,0.426-6.22,0.696-10.157,0.696    c-12.988,0-20.171-2.893-20.171-4.891C8.668,60.829,8.668,55.513,8.668,55.513z M28.838,76.075    c-12.988,0-20.171-2.891-20.171-4.89v-5.317c1.224,0.679,2.728,1.276,4.562,1.775c4.143,1.125,9.686,1.745,15.609,1.745    c1.712,0,6.359-0.083,11.101-0.821c0.723,2.145,1.695,4.175,2.885,6.057C39.45,75.468,34.763,76.075,28.838,76.075z M66.73,84.165    c-13.565,0-24.602-11.037-24.602-24.602S53.165,34.961,66.73,34.961s24.602,11.036,24.602,24.602S80.296,84.165,66.73,84.165z" fill="#000000"></path><g><path style="" d="M60.025,80.28c-0.966-0.318-1.492-1.356-1.174-2.31l0,0c0.306-0.966,1.344-1.504,2.31-1.185     h-0.012c0.966,0.306,1.503,1.344,1.185,2.31l0,0c-0.245,0.77-0.966,1.271-1.748,1.271l0,0     C60.403,80.366,60.207,80.341,60.025,80.28z M71.16,79.083c-0.306-0.966,0.208-1.992,1.174-2.311l0,0     c0.966-0.318,2.006,0.221,2.311,1.174l0,0c0.318,0.966-0.208,2.006-1.174,2.311l0,0c-0.184,0.061-0.38,0.098-0.562,0.098l0,0     C72.138,80.354,71.417,79.865,71.16,79.083z M49.144,72.383c-0.599-0.819-0.415-1.967,0.391-2.555l0,0     c0.82-0.599,1.968-0.427,2.567,0.392l0,0c0.599,0.819,0.415,1.967-0.392,2.567l0,0c-0.329,0.233-0.709,0.355-1.088,0.355l0,0     C50.061,73.141,49.499,72.873,49.144,72.383z M81.784,72.75c-0.819-0.586-1.003-1.736-0.404-2.555l0,0     c0.586-0.819,1.736-1.002,2.555-0.404l0,0c0.819,0.587,1.003,1.736,0.404,2.556l0,0c-0.355,0.5-0.917,0.757-1.479,0.757l0,0     C82.48,73.104,82.102,72.995,81.784,72.75z M44.963,59.608c0-1.014,0.819-1.834,1.834-1.834l0,0c1.015,0,1.834,0.807,1.834,1.822     l0,0c0,1.015-0.819,1.834-1.822,1.846l0,0C45.795,61.442,44.963,60.623,44.963,59.608z M84.829,59.584c0-0.037,0-0.061,0-0.098     l0,0c-0.013-1.015,0.806-1.834,1.821-1.846l0,0c1.015,0,1.834,0.819,1.847,1.834l0,0c0,0.012,0,0.037,0,0.049l0,0     c0,0.012,0,0.024,0,0.036l0,0l0,0l0,0c0,1.015-0.82,1.834-1.834,1.834l0,0C85.648,61.393,84.84,60.587,84.829,59.584z      M48.631,59.596L48.631,59.596L48.631,59.596L48.631,59.596z M49.499,49.377c-0.819-0.599-1.002-1.748-0.415-2.567l0,0l0,0l0,0     c0.599-0.819,1.748-1.002,2.567-0.403l0,0c0.819,0.587,1.003,1.736,0.404,2.555l0,0c-0.355,0.501-0.917,0.758-1.479,0.758l0,0     C50.195,49.719,49.829,49.609,49.499,49.377z M81.332,48.875L81.332,48.875c-0.599-0.819-0.427-1.968,0.392-2.567l0,0     c0.819-0.599,1.967-0.428,2.567,0.391l0,0c0.599,0.819,0.415,1.968-0.392,2.567l0,0c-0.329,0.244-0.709,0.355-1.088,0.355l0,0     C82.249,49.621,81.686,49.365,81.332,48.875z M58.765,41.186c-0.306-0.954,0.208-1.993,1.174-2.311l0,0l0,0l0,0     c0.966-0.318,2.004,0.208,2.31,1.174l0,0c0.319,0.966-0.208,1.992-1.162,2.311l0,0c-0.195,0.061-0.39,0.097-0.574,0.097l0,0     C59.743,42.457,59.022,41.968,58.765,41.186z M72.273,42.323c-0.966-0.306-1.503-1.332-1.197-2.298l0,0     c0.318-0.966,1.344-1.504,2.31-1.186l0,0c0.966,0.306,1.491,1.345,1.185,2.299l0,0c-0.245,0.782-0.966,1.283-1.748,1.283l0,0     C72.64,42.421,72.457,42.384,72.273,42.323z" fill="#000000"></path></g><path d="M61.237,69.642v-9.853h-1.952v-2.456h1.952v-3.022c0-4.659,3.369-7.272,7.493-7.272c2.298,0,3.904,0.629,5.446,2.172    l-2.267,2.235c-0.787-0.787-1.542-1.353-3.179-1.353c-2.518,0-4.061,1.542-4.061,4.47v2.77h4.061v2.456h-4.061v6.8h9.507v3.053    C74.176,69.642,61.237,69.642,61.237,69.642z"></path></g></g><g style="" display="none"><g style="" display="inline"><path d="M82.419,5H17.581c-0.802,0-1.452,0.65-1.452,1.452v87.097c0,0.801,0.65,1.452,1.452,1.452H82.42    c0.801,0,1.452-0.65,1.452-1.452V6.452C83.871,5.65,83.221,5,82.419,5z M80.968,92.097H19.032V7.903h61.935L80.968,92.097    L80.968,92.097z"></path><path d="M25.145,49.365h49.71c0.801,0,1.452-0.65,1.452-1.452V15.645c0-0.802-0.65-1.452-1.452-1.452h-49.71    c-0.802,0-1.452,0.65-1.452,1.452v32.269C23.693,48.715,24.343,49.365,25.145,49.365z M26.597,17.096h46.807v29.365H68.63V24.113    c0-0.534-0.433-0.968-0.968-0.968h-4.839c-0.534,0-0.968,0.433-0.968,0.968v22.349h-3.629V29.194c0-0.534-0.433-0.968-0.968-0.968    h-4.839c-0.534,0-0.968,0.433-0.968,0.968v17.268h-3.629V33.79c0-0.534-0.433-0.968-0.968-0.968h-4.839    c-0.534,0-0.968,0.433-0.968,0.968v12.671h-3.629v-8.317c0-0.534-0.433-0.968-0.968-0.968h-4.839    c-0.534,0-0.968,0.433-0.968,0.968v8.317h-4.049V17.096H26.597z"></path><path d="M25.145,60.978h49.71c0.801,0,1.452-0.65,1.452-1.452s-0.65-1.452-1.452-1.452h-49.71c-0.802,0-1.452,0.65-1.452,1.452    S24.343,60.978,25.145,60.978z"></path><path d="M25.145,71.381h49.71c0.801,0,1.452-0.65,1.452-1.452s-0.65-1.452-1.452-1.452h-49.71c-0.802,0-1.452,0.65-1.452,1.452    S24.343,71.381,25.145,71.381z"></path><path d="M25.145,81.784h49.71c0.801,0,1.452-0.65,1.452-1.452c0-0.801-0.65-1.452-1.452-1.452h-49.71    c-0.802,0-1.452,0.65-1.452,1.452C23.693,81.134,24.343,81.784,25.145,81.784z"></path></g></g><g style="" display="none"><g style="" display="inline"><path d="M82.419,5H17.581c-0.802,0-1.452,0.65-1.452,1.452v87.097c0,0.801,0.65,1.452,1.452,1.452H82.42    c0.801,0,1.452-0.65,1.452-1.452V6.452C83.871,5.65,83.221,5,82.419,5z M80.968,92.097H19.032V7.903h61.935L80.968,92.097    L80.968,92.097z"></path><path d="M25.145,49.365h49.71c0.801,0,1.452-0.65,1.452-1.452V15.645c0-0.802-0.65-1.452-1.452-1.452h-49.71    c-0.802,0-1.452,0.65-1.452,1.452v32.269C23.693,48.715,24.343,49.365,25.145,49.365z M26.597,17.096h46.807v29.365H26.597V17.096    z"></path><path d="M25.145,60.978h49.71c0.801,0,1.452-0.65,1.452-1.452s-0.65-1.452-1.452-1.452h-49.71c-0.802,0-1.452,0.65-1.452,1.452    S24.343,60.978,25.145,60.978z"></path><path d="M25.145,71.381h49.71c0.801,0,1.452-0.65,1.452-1.452s-0.65-1.452-1.452-1.452h-49.71c-0.802,0-1.452,0.65-1.452,1.452    S24.343,71.381,25.145,71.381z"></path><path d="M25.145,81.784h49.71c0.801,0,1.452-0.65,1.452-1.452c0-0.801-0.65-1.452-1.452-1.452h-49.71    c-0.802,0-1.452,0.65-1.452,1.452C23.693,81.134,24.343,81.784,25.145,81.784z"></path><path d="M67.903,19.032c-1.734,0-3.145,1.411-3.145,3.145c0,0.064,0.015,0.123,0.019,0.186l-6.801,2.667    c-0.577-0.673-1.423-1.11-2.378-1.11c-1.734,0-3.145,1.411-3.145,3.145c0,0.923,0.407,1.746,1.042,2.322l-2.687,6.27    c-0.108-0.011-0.213-0.033-0.325-0.033c-0.668,0-1.286,0.213-1.796,0.57l-6.055-4.844c0.171-0.388,0.27-0.815,0.27-1.265    c0-1.734-1.411-3.145-3.145-3.145s-3.145,1.411-3.145,3.145c0,0.667,0.212,1.284,0.568,1.794l-3.899,5.458    c-0.3-0.095-0.612-0.16-0.943-0.16c-1.734,0-3.145,1.411-3.145,3.145s1.411,3.145,3.145,3.145s3.145-1.411,3.145-3.145    c0-0.7-0.238-1.34-0.626-1.863l3.869-5.416c0.325,0.114,0.668,0.188,1.031,0.188c0.577,0,1.112-0.167,1.577-0.44l6.19,4.952    c-0.113,0.324-0.187,0.666-0.187,1.027c0,1.734,1.411,3.145,3.145,3.145s3.145-1.411,3.145-3.145c0-0.927-0.411-1.753-1.051-2.329    l2.684-6.264c0.112,0.012,0.221,0.034,0.336,0.034c1.734,0,3.145-1.411,3.145-3.145c0-0.085-0.018-0.164-0.025-0.247l6.767-2.654    c0.577,0.701,1.44,1.158,2.417,1.158c1.734,0,3.145-1.411,3.145-3.145S69.637,19.032,67.903,19.032z M32.339,41.532    c-0.667,0-1.21-0.542-1.21-1.21c0-0.667,0.542-1.21,1.21-1.21s1.21,0.542,1.21,1.21C33.548,40.99,33.006,41.532,32.339,41.532z     M39.758,31.295c-0.667,0-1.21-0.542-1.21-1.21c0-0.667,0.542-1.21,1.21-1.21s1.21,0.542,1.21,1.21    C40.968,30.753,40.425,31.295,39.758,31.295z M50.484,39.98c-0.667,0-1.21-0.542-1.21-1.21c0-0.667,0.542-1.21,1.21-1.21    s1.21,0.542,1.21,1.21S51.151,39.98,50.484,39.98z M55.599,28.276c-0.667,0-1.21-0.542-1.21-1.21s0.542-1.21,1.21-1.21    s1.21,0.542,1.21,1.21S56.266,28.276,55.599,28.276z M67.903,23.387c-0.667,0-1.21-0.542-1.21-1.21c0-0.667,0.542-1.21,1.21-1.21    s1.21,0.542,1.21,1.21C69.113,22.845,68.57,23.387,67.903,23.387z"></path></g></g><g style="" display="none"><g style="" display="inline"><path d="M11.767,52.104h-4.06C6.212,52.104,5,53.316,5,54.811V74.46c0,1.495,1.212,2.707,2.707,2.707h4.06    c1.495,0,2.707-1.212,2.707-2.707V54.811C14.473,53.316,13.262,52.104,11.767,52.104z"></path><path d="M78.219,43.708h-4.071c-1.495,0-2.707,1.212-2.707,2.707v14.646H28.548V46.439c0-1.495-1.212-2.707-2.707-2.707h-4.06    c-1.495,0-2.707,1.212-2.707,2.707v36.393c0,1.495,1.212,2.707,2.707,2.707h4.06c1.495,0,2.707-1.212,2.707-2.707V67.076h42.893    v15.779c0,1.495,1.212,2.707,2.707,2.707h4.071c1.495,0,2.707-1.212,2.707-2.707v-36.44C80.925,44.92,79.713,43.708,78.219,43.708    z"></path><path d="M92.293,52.104h-4.06c-1.495,0-2.707,1.212-2.707,2.707V74.46c0,1.495,1.212,2.707,2.707,2.707h4.06    c1.495,0,2.707-1.212,2.707-2.707V54.811C95,53.316,93.788,52.104,92.293,52.104z"></path><path d="M50,51.749c10.287,0,18.656-8.369,18.656-18.655S60.286,14.438,50,14.438s-18.655,8.369-18.655,18.655    S39.713,51.749,50,51.749z M50,17.416c8.645,0,15.678,7.033,15.678,15.678S58.645,48.772,50,48.772s-15.678-7.033-15.678-15.678    S41.355,17.416,50,17.416z"></path><path d="M44.494,38.066L41.83,40.73c1.924,1.953,4.144,2.694,6.986,2.782v3.197h2.99v-3.316c3.7-0.444,6.364-2.663,6.364-6.275    c0-1.865-0.504-3.375-1.628-4.44c-0.888-0.829-2.102-1.362-4.026-1.657l-1.124-0.177v-5.15c1.214,0.088,2.664,0.473,3.641,1.42    l2.605-2.575c-1.599-1.539-3.433-2.279-5.831-2.427v-2.634h-2.99v2.663c-3.849,0.414-6.157,2.931-6.157,6.335    c0,1.776,0.503,3.108,1.509,4.115c0.888,0.887,2.31,1.539,4.086,1.776l0.947,0.119v5.357    C47.424,39.784,45.738,39.309,44.494,38.066z M51.391,34.692c0.77,0.119,1.509,0.208,2.101,0.77    c0.445,0.414,0.651,1.035,0.651,1.776c0,1.451-0.977,2.338-2.752,2.546C51.391,39.784,51.391,34.692,51.391,34.692z     M47.247,29.837c-0.444-0.414-0.621-0.977-0.621-1.509c0-1.303,0.858-2.367,2.575-2.605v4.943    C48.373,30.547,47.721,30.282,47.247,29.837z"></path></g></g><g style="" display="none"><g style="" display="inline"><path d="M11.767,52.104h-4.06C6.212,52.104,5,53.316,5,54.811V74.46c0,1.495,1.212,2.707,2.707,2.707h4.06    c1.495,0,2.707-1.212,2.707-2.707V54.811C14.473,53.316,13.262,52.104,11.767,52.104z"></path><path d="M78.219,43.708h-4.071c-1.495,0-2.707,1.212-2.707,2.707v14.646H28.548V46.439c0-1.495-1.212-2.707-2.707-2.707h-4.06    c-1.495,0-2.707,1.212-2.707,2.707v36.393c0,1.495,1.212,2.707,2.707,2.707h4.06c1.495,0,2.707-1.212,2.707-2.707V67.076h42.893    v15.779c0,1.495,1.212,2.707,2.707,2.707h4.071c1.495,0,2.707-1.212,2.707-2.707v-36.44C80.925,44.92,79.713,43.708,78.219,43.708    z"></path><path d="M92.293,52.104h-4.06c-1.495,0-2.707,1.212-2.707,2.707V74.46c0,1.495,1.212,2.707,2.707,2.707h4.06    c1.495,0,2.707-1.212,2.707-2.707V54.811C95,53.316,93.788,52.104,92.293,52.104z"></path><path d="M50,51.749c10.287,0,18.656-8.369,18.656-18.655S60.286,14.438,50,14.438s-18.655,8.369-18.655,18.655    S39.713,51.749,50,51.749z M50,17.416c8.645,0,15.678,7.033,15.678,15.678S58.645,48.772,50,48.772s-15.678-7.033-15.678-15.678    S41.355,17.416,50,17.416z"></path><polygon points="43.379,31.97 43.379,34.471 47.451,34.471 48.285,36.106 48.285,37.773 43.379,37.773 43.379,40.274     48.285,40.274 48.285,45.5 51.748,45.5 51.748,40.274 56.653,40.274 56.653,37.773 51.748,37.773 51.748,36.106 52.581,34.471     56.653,34.471 56.653,31.97 53.864,31.97 58.544,22.673 54.793,22.673 50.048,32.74 45.239,22.673 41.456,22.673 46.169,31.97       "></polygon></g></g><g style="" display="none"><g style="" display="inline"><path d="M11.767,52.104h-4.06C6.212,52.104,5,53.316,5,54.811V74.46c0,1.495,1.212,2.707,2.707,2.707h4.06    c1.495,0,2.707-1.212,2.707-2.707V54.811C14.473,53.316,13.262,52.104,11.767,52.104z"></path><path d="M78.219,43.708h-4.071c-1.495,0-2.707,1.212-2.707,2.707v14.646H28.548V46.439c0-1.495-1.212-2.707-2.707-2.707h-4.06    c-1.495,0-2.707,1.212-2.707,2.707v36.393c0,1.495,1.212,2.707,2.707,2.707h4.06c1.495,0,2.707-1.212,2.707-2.707V67.076h42.893    v15.779c0,1.495,1.212,2.707,2.707,2.707h4.071c1.495,0,2.707-1.212,2.707-2.707v-36.44C80.925,44.92,79.713,43.708,78.219,43.708    z"></path><path d="M92.293,52.104h-4.06c-1.495,0-2.707,1.212-2.707,2.707V74.46c0,1.495,1.212,2.707,2.707,2.707h4.06    c1.495,0,2.707-1.212,2.707-2.707V54.811C95,53.316,93.788,52.104,92.293,52.104z"></path><path d="M50,51.749c10.287,0,18.656-8.369,18.656-18.655S60.286,14.438,50,14.438s-18.655,8.369-18.655,18.655    S39.713,51.749,50,51.749z M50,17.416c8.645,0,15.678,7.033,15.678,15.678S58.645,48.772,50,48.772s-15.678-7.033-15.678-15.678    S41.355,17.416,50,17.416z"></path><path d="M49.273,42.464v4.246h3.06v-4.207c2.18-0.267,3.786-1.109,5.393-2.83l-2.601-2.525c-0.995,1.11-1.874,1.645-3.136,1.836    V26.438c1.262,0.192,2.142,0.727,3.136,1.836l2.601-2.524c-1.607-1.721-3.213-2.563-5.393-2.83v-3.442h-3.06v3.481    c-4.092,0.688-6.999,4.054-6.999,9.753C42.274,38.41,45.181,41.776,49.273,42.464z M47.399,28.007    c0.574-0.765,1.301-1.301,2.219-1.492v12.392c-0.918-0.191-1.683-0.727-2.257-1.491c-0.803-1.109-1.186-2.486-1.186-4.704    C46.175,30.455,46.596,29.116,47.399,28.007z"></path></g></g><g style="" display="none"><g style="" display="inline"><path d="M11.767,52.104h-4.06C6.212,52.104,5,53.316,5,54.811V74.46c0,1.495,1.212,2.707,2.707,2.707h4.06    c1.495,0,2.707-1.212,2.707-2.707V54.811C14.473,53.316,13.262,52.104,11.767,52.104z"></path><path d="M78.219,43.708h-4.071c-1.495,0-2.707,1.212-2.707,2.707v14.646H28.548V46.439c0-1.495-1.212-2.707-2.707-2.707h-4.06    c-1.495,0-2.707,1.212-2.707,2.707v36.393c0,1.495,1.212,2.707,2.707,2.707h4.06c1.495,0,2.707-1.212,2.707-2.707V67.076h42.893    v15.779c0,1.495,1.212,2.707,2.707,2.707h4.071c1.495,0,2.707-1.212,2.707-2.707v-36.44C80.925,44.92,79.713,43.708,78.219,43.708    z"></path><path d="M92.293,52.104h-4.06c-1.495,0-2.707,1.212-2.707,2.707V74.46c0,1.495,1.212,2.707,2.707,2.707h4.06    c1.495,0,2.707-1.212,2.707-2.707V54.811C95,53.316,93.788,52.104,92.293,52.104z"></path><path d="M50,51.749c10.287,0,18.656-8.369,18.656-18.655S60.286,14.438,50,14.438s-18.655,8.369-18.655,18.655    S39.713,51.749,50,51.749z M50,17.416c8.645,0,15.678,7.033,15.678,15.678S58.645,48.772,50,48.772s-15.678-7.033-15.678-15.678    S41.355,17.416,50,17.416z"></path><path d="M44.989,42.409H56.79v-2.785h-8.671v-6.202h3.704v-2.24h-3.704v-2.527c0-2.67,1.407-4.077,3.704-4.077    c1.493,0,2.182,0.517,2.9,1.234l2.067-2.038c-1.407-1.407-2.871-1.981-4.967-1.981c-3.761,0-6.834,2.383-6.834,6.633v2.756h-1.78    v2.24h1.78V42.409z"></path></g></g><path d="M92.606,47.793c-1.908-1.456-4.503-1.653-6.611-0.502l-15.644,8.552c-0.448,0.245-0.937,0.391-1.451,0.432l-6.138,0.48  c0-0.015,0-0.031,0-0.046c0-3.403-2.663-6.172-6.063-6.304l-18.987-0.74c-1.929-0.067-3.786,0.702-5.087,2.135l-6.879,7.578  c-0.685,0.754-1.661,1.186-2.677,1.186h-2.22v-3.133c0-0.804-0.651-1.456-1.456-1.456H6.456C5.651,55.976,5,56.628,5,57.432v31.054  c0,0.804,0.651,1.456,1.456,1.456h12.939c0.804,0,1.456-0.652,1.456-1.456v-2.944h13.08c0.696,0,1.384-0.11,2.046-0.328  l30.509-10.073c0.588-0.194,1.144-0.471,1.655-0.823l24.225-16.673c1.626-1.119,2.586-2.891,2.634-4.864  C95.046,50.808,94.175,48.989,92.606,47.793z M17.939,87.03H7.911V58.887h10.028v3.133v22.066V87.03z M90.714,55.246L66.488,71.921  c-0.283,0.195-0.591,0.348-0.916,0.455L35.064,82.449c-0.367,0.12-0.749,0.182-1.135,0.182H20.85V63.476h2.22  c1.836,0,3.597-0.78,4.833-2.141l6.879-7.578c0.721-0.793,1.764-1.222,2.818-1.183l18.987,0.74c1.831,0.071,3.265,1.563,3.265,3.395  c0,1.714-1.284,3.164-2.985,3.373L43.72,61.689c-0.798,0.098-1.366,0.823-1.268,1.621c0.097,0.798,0.816,1.36,1.621,1.269  l13.147-1.607c2.076-0.255,3.818-1.505,4.767-3.236l7.142-0.559c0.927-0.074,1.808-0.336,2.619-0.78l15.643-8.551  c1.098-0.602,2.451-0.497,3.448,0.262c0.818,0.624,1.273,1.572,1.247,2.602C92.063,53.738,91.562,54.663,90.714,55.246z"></path><path d="M55.527,46.537c10.057,0,18.24-8.182,18.24-18.239s-8.183-18.239-18.24-18.239s-18.239,8.182-18.239,18.239  S45.47,46.537,55.527,46.537z M55.527,12.97c8.452,0,15.329,6.876,15.329,15.328s-6.877,15.328-15.329,15.328  S40.199,36.75,40.199,28.298S47.075,12.97,55.527,12.97z"></path><path d="M50.145,33.16l-2.605,2.605c1.881,1.91,4.052,2.634,6.83,2.72v3.126h2.923v-3.242c3.617-0.434,6.222-2.604,6.222-6.135  c0-1.823-0.492-3.299-1.592-4.341c-0.869-0.81-2.055-1.331-3.936-1.62L56.888,26.1v-5.035c1.187,0.086,2.605,0.462,3.56,1.389  l2.546-2.518c-1.563-1.504-3.357-2.229-5.701-2.373v-2.575H54.37v2.604c-3.763,0.405-6.02,2.865-6.02,6.193  c0,1.736,0.492,3.039,1.476,4.023c0.869,0.868,2.258,1.504,3.995,1.736l0.926,0.116v5.238C53.009,34.838,51.36,34.375,50.145,33.16z   M56.888,29.86c0.753,0.116,1.476,0.203,2.054,0.753c0.435,0.405,0.637,1.012,0.637,1.736c0,1.418-0.955,2.286-2.691,2.489V29.86z   M52.836,25.114c-0.434-0.405-0.607-0.955-0.607-1.476c0-1.274,0.839-2.315,2.518-2.546v4.832  C53.936,25.808,53.299,25.549,52.836,25.114z"></path><g style="" display="none"><g style="" display="inline"><path d="M92.606,47.793c-1.908-1.456-4.503-1.653-6.611-0.502l-15.644,8.552c-0.448,0.245-0.937,0.391-1.451,0.432l-6.138,0.48    c0-0.015,0-0.031,0-0.046c0-3.403-2.663-6.172-6.063-6.304l-18.987-0.74c-1.929-0.067-3.786,0.702-5.087,2.135l-6.879,7.578    c-0.685,0.754-1.661,1.186-2.677,1.186h-2.22v-3.133c0-0.804-0.651-1.456-1.456-1.456H6.456C5.651,55.976,5,56.628,5,57.432    v31.054c0,0.804,0.651,1.456,1.456,1.456h12.939c0.804,0,1.456-0.652,1.456-1.456v-2.944h13.08c0.696,0,1.384-0.11,2.046-0.328    l30.509-10.073c0.588-0.194,1.144-0.471,1.655-0.823l24.225-16.673c1.626-1.119,2.586-2.891,2.634-4.864    C95.046,50.808,94.175,48.989,92.606,47.793z M17.939,87.03H7.911V58.887h10.028v3.133v22.066V87.03z M90.714,55.246    L66.488,71.921c-0.283,0.195-0.591,0.348-0.916,0.455L35.064,82.449c-0.367,0.12-0.749,0.182-1.135,0.182H20.85V63.476h2.22    c1.836,0,3.597-0.78,4.833-2.141l6.879-7.578c0.721-0.793,1.764-1.222,2.818-1.183l18.987,0.74    c1.831,0.071,3.265,1.563,3.265,3.395c0,1.714-1.284,3.164-2.985,3.373L43.72,61.689c-0.798,0.098-1.366,0.823-1.268,1.621    c0.097,0.798,0.816,1.36,1.621,1.269l13.147-1.607c2.076-0.255,3.818-1.505,4.767-3.236l7.142-0.559    c0.927-0.074,1.808-0.336,2.619-0.78l15.643-8.551c1.098-0.602,2.451-0.497,3.448,0.262c0.818,0.624,1.273,1.572,1.247,2.602    C92.063,53.738,91.562,54.663,90.714,55.246z"></path><path d="M55.527,46.537c10.057,0,18.24-8.182,18.24-18.239s-8.183-18.239-18.24-18.239s-18.239,8.182-18.239,18.239    S45.47,46.537,55.527,46.537z M55.527,12.97c8.452,0,15.329,6.876,15.329,15.328s-6.877,15.328-15.329,15.328    S40.199,36.75,40.199,28.298S47.075,12.97,55.527,12.97z"></path><polygon points="49.054,27.199 49.054,29.644 53.035,29.644 53.85,31.243 53.85,32.873 49.054,32.873 49.054,35.318 53.85,35.318     53.85,40.427 57.236,40.427 57.236,35.318 62.032,35.318 62.032,32.873 57.236,32.873 57.236,31.243 58.051,29.644 62.032,29.644     62.032,27.199 59.305,27.199 63.881,18.109 60.213,18.109 55.574,27.952 50.873,18.109 47.174,18.109 51.782,27.199   "></polygon></g></g><g style="" display="none"><g style="" display="inline"><path d="M92.606,47.793c-1.908-1.456-4.503-1.653-6.611-0.502l-15.644,8.552c-0.448,0.245-0.937,0.391-1.451,0.432l-6.138,0.48    c0-0.015,0-0.031,0-0.046c0-3.403-2.663-6.172-6.063-6.304l-18.987-0.74c-1.929-0.067-3.786,0.702-5.087,2.135l-6.879,7.578    c-0.685,0.754-1.661,1.186-2.677,1.186h-2.22v-3.133c0-0.804-0.651-1.456-1.456-1.456H6.456C5.651,55.976,5,56.628,5,57.432    v31.054c0,0.804,0.651,1.456,1.456,1.456h12.939c0.804,0,1.456-0.652,1.456-1.456v-2.944h13.08c0.696,0,1.384-0.11,2.046-0.328    l30.509-10.073c0.588-0.194,1.144-0.471,1.655-0.823l24.225-16.673c1.626-1.119,2.586-2.891,2.634-4.864    C95.046,50.808,94.175,48.989,92.606,47.793z M17.939,87.03H7.911V58.887h10.028v3.133v22.066V87.03z M90.714,55.246    L66.488,71.921c-0.283,0.195-0.591,0.348-0.916,0.455L35.064,82.449c-0.367,0.12-0.749,0.182-1.135,0.182H20.85V63.476h2.22    c1.836,0,3.597-0.78,4.833-2.141l6.879-7.578c0.721-0.793,1.764-1.222,2.818-1.183l18.987,0.74    c1.831,0.071,3.265,1.563,3.265,3.395c0,1.714-1.284,3.164-2.985,3.373L43.72,61.689c-0.798,0.098-1.366,0.823-1.268,1.621    c0.097,0.798,0.816,1.36,1.621,1.269l13.147-1.607c2.076-0.255,3.818-1.505,4.767-3.236l7.142-0.559    c0.927-0.074,1.808-0.336,2.619-0.78l15.643-8.551c1.098-0.602,2.451-0.497,3.448,0.262c0.818,0.624,1.273,1.572,1.247,2.602    C92.063,53.738,91.562,54.663,90.714,55.246z"></path><path d="M55.527,46.537c10.057,0,18.24-8.182,18.24-18.239s-8.183-18.239-18.24-18.239s-18.239,8.182-18.239,18.239    S45.47,46.537,55.527,46.537z M55.527,12.97c8.452,0,15.329,6.876,15.329,15.328s-6.877,15.328-15.329,15.328    S40.199,36.75,40.199,28.298S47.075,12.97,55.527,12.97z"></path><path d="M54.817,37.459v4.151h2.991v-4.113c2.131-0.261,3.702-1.084,5.272-2.767l-2.543-2.469    c-0.972,1.085-1.832,1.608-3.066,1.795V21.791c1.234,0.187,2.094,0.711,3.066,1.795l2.543-2.468    c-1.571-1.683-3.141-2.505-5.272-2.767v-3.366h-2.991v3.403c-4.001,0.673-6.843,3.964-6.843,9.535    C47.974,33.495,50.816,36.786,54.817,37.459z M52.984,23.324c0.561-0.748,1.272-1.272,2.169-1.458v12.116    c-0.897-0.187-1.645-0.711-2.206-1.458c-0.785-1.084-1.159-2.431-1.159-4.599C51.788,25.718,52.199,24.409,52.984,23.324z"></path></g></g><g style="" display="none"><g style="" display="inline"><path d="M92.606,47.793c-1.908-1.456-4.503-1.653-6.611-0.502l-15.644,8.552c-0.448,0.245-0.937,0.391-1.451,0.432l-6.138,0.48    c0-0.015,0-0.031,0-0.046c0-3.403-2.663-6.172-6.063-6.304l-18.987-0.74c-1.929-0.067-3.786,0.702-5.087,2.135l-6.879,7.578    c-0.685,0.754-1.661,1.186-2.677,1.186h-2.22v-3.133c0-0.804-0.651-1.456-1.456-1.456H6.456C5.651,55.976,5,56.628,5,57.432    v31.054c0,0.804,0.651,1.456,1.456,1.456h12.939c0.804,0,1.456-0.652,1.456-1.456v-2.944h13.08c0.696,0,1.384-0.11,2.046-0.328    l30.509-10.073c0.588-0.194,1.144-0.471,1.655-0.823l24.225-16.673c1.626-1.119,2.586-2.891,2.634-4.864    C95.046,50.808,94.175,48.989,92.606,47.793z M17.939,87.03H7.911V58.887h10.028v3.133v22.066V87.03z M90.714,55.246    L66.488,71.921c-0.283,0.195-0.591,0.348-0.916,0.455L35.064,82.449c-0.367,0.12-0.749,0.182-1.135,0.182H20.85V63.476h2.22    c1.836,0,3.597-0.78,4.833-2.141l6.879-7.578c0.721-0.793,1.764-1.222,2.818-1.183l18.987,0.74    c1.831,0.071,3.265,1.563,3.265,3.395c0,1.714-1.284,3.164-2.985,3.373L43.72,61.689c-0.798,0.098-1.366,0.823-1.268,1.621    c0.097,0.798,0.816,1.36,1.621,1.269l13.147-1.607c2.076-0.255,3.818-1.505,4.767-3.236l7.142-0.559    c0.927-0.074,1.808-0.336,2.619-0.78l15.643-8.551c1.098-0.602,2.451-0.497,3.448,0.262c0.818,0.624,1.273,1.572,1.247,2.602    C92.063,53.738,91.562,54.663,90.714,55.246z"></path><path d="M55.527,46.537c10.057,0,18.24-8.182,18.24-18.239s-8.183-18.239-18.24-18.239s-18.239,8.182-18.239,18.239    S45.47,46.537,55.527,46.537z M55.527,12.97c8.452,0,15.329,6.876,15.329,15.328s-6.877,15.328-15.329,15.328    S40.199,36.75,40.199,28.298S47.075,12.97,55.527,12.97z"></path><path d="M50.628,37.405h11.538v-2.723h-8.478v-6.064h3.621v-2.19h-3.621v-2.47c0-2.611,1.376-3.986,3.621-3.986    c1.46,0,2.133,0.505,2.835,1.207l2.021-1.993c-1.375-1.376-2.807-1.937-4.856-1.937c-3.678,0-6.681,2.33-6.681,6.485v2.695h-1.74    v2.19h1.74V37.405z"></path></g></g></svg>