<svg height='100px' width='100px'  fill="#000000" xmlns="http://www.w3.org/2000/svg" data-name="Layer 1" viewBox="0 0 64 64" x="0px" y="0px"><title>x</title><path d="M59.726,12.652A4.462,4.462,0,0,0,55.6,8.906c-4.611-.271-16.035-1.562-22.517-7.679a1.645,1.645,0,0,0-2.164,0C24.436,7.344,13.012,8.635,8.4,8.906a4.461,4.461,0,0,0-4.127,3.746C3.045,20.537,1.358,47.473,31.256,63.011a1.49,1.49,0,0,0,.69.169c.018,0,.036-.007.054-.008s.035.008.054.008a1.49,1.49,0,0,0,.69-.169C62.641,47.473,60.955,20.537,59.726,12.652ZM32,60C4.558,45.333,6.1,20.442,7.238,13.114A1.445,1.445,0,0,1,8.577,11.9C13.3,11.623,24.715,10.309,32,4.251c7.284,6.058,18.7,7.372,23.423,7.65a1.446,1.446,0,0,1,1.339,1.213C57.9,20.442,59.443,45.333,32,60Z"></path><path d="M42.246,16.919a9.408,9.408,0,0,0-9.8,2.657c-.158.16-.3.327-.445.493-.144-.166-.287-.333-.445-.493a9.41,9.41,0,0,0-9.8-2.657,8.606,8.606,0,0,0-6.414,7.088,13.7,13.7,0,0,0,1.383,8.515,21.679,21.679,0,0,0,3.96,5.28,80.681,80.681,0,0,0,6.969,6.467c1.059.9,2.153,1.83,3.274,2.851a1.462,1.462,0,0,0,.827.357l.02,0a1.583,1.583,0,0,0,.162.03c.022,0,.043-.006.065-.007s.043.007.064.007a1.553,1.553,0,0,0,.163-.03l.02,0a1.462,1.462,0,0,0,.827-.357c1.12-1.021,2.215-1.951,3.274-2.851A80.537,80.537,0,0,0,43.316,37.8a21.94,21.94,0,0,0,3.961-5.281,13.709,13.709,0,0,0,1.383-8.514A8.606,8.606,0,0,0,42.246,16.919Zm2.336,14.286a19.139,19.139,0,0,1-3.445,4.536,77.083,77.083,0,0,1-6.732,6.242c-.779.662-1.585,1.357-2.405,2.08-.82-.723-1.626-1.418-2.405-2.08a76.939,76.939,0,0,1-6.732-6.242,19.139,19.139,0,0,1-3.445-4.536A10.816,10.816,0,0,1,18.3,24.5a5.6,5.6,0,0,1,4.3-4.7,6.407,6.407,0,0,1,6.823,1.883,13.017,13.017,0,0,1,.909,1.075c.161.2.327.415.5.626l.006.007.008.011c.03.036.066.065.1.1s.065.072.1.1l.007,0a1.414,1.414,0,0,0,.161.108,1.071,1.071,0,0,0,.09.059,1.057,1.057,0,0,0,.11.045,1.493,1.493,0,0,0,.731.12c.036,0,.072-.015.109-.021a1.43,1.43,0,0,0,.173-.034c.032-.01.063-.026.094-.038a1.446,1.446,0,0,0,.178-.073c.023-.012.043-.029.065-.042a1.493,1.493,0,0,0,.185-.124l.006,0a1.079,1.079,0,0,0,.089-.09,1.5,1.5,0,0,0,.114-.112l.01-.013,0,0c.175-.212.342-.423.5-.629a12.636,12.636,0,0,1,.908-1.075A6.406,6.406,0,0,1,41.4,19.8a5.6,5.6,0,0,1,4.3,4.7A10.818,10.818,0,0,1,44.582,31.205Z"></path><path d="M35.485,30.5H33.5V28.513a1.5,1.5,0,0,0-3,0V30.5H28.514a1.5,1.5,0,1,0,0,3H30.5v1.985a1.5,1.5,0,1,0,3,0V33.5h1.985a1.5,1.5,0,0,0,0-3Z"></path></svg>