<svg height='100px' width='100px'  fill="#000000" xmlns="http://www.w3.org/2000/svg" xmlns:xlink="http://www.w3.org/1999/xlink" version="1.1" x="0px" y="0px" viewBox="0 0 64 64" style="enable-background:new 0 0 64 64;" xml:space="preserve"><path d="M46,25c3.86,0,7-3.14,7-7s-3.14-7-7-7s-7,3.14-7,7S42.14,25,46,25z M46,13c2.757,0,5,2.243,5,5s-2.243,5-5,5s-5-2.243-5-5  S43.243,13,46,13z"></path><path d="M3,62h0.941c10.066,0,19.677-3.146,27.794-9.099l2.856-2.095c0.144-0.106,0.257-0.249,0.328-0.413l2.418-5.643l0.828,0.828  l4.925,10.834c0.136,0.299,0.409,0.512,0.732,0.57C43.881,56.995,43.941,57,44,57c0.263,0,0.518-0.104,0.707-0.293l16-16  c0.267-0.266,0.36-0.66,0.244-1.018l-4.33-13.244C60.126,20.139,62,13.017,62,5.603V3c0-0.552-0.448-1-1-1h-2.147  c-7.475,0-14.689,1.92-21.06,5.507L25.336,3.058c-0.354-0.125-0.748-0.044-1.022,0.214l-17,16c-0.243,0.229-0.355,0.562-0.301,0.892  c0.054,0.329,0.269,0.609,0.573,0.747l10.834,4.925l0.828,0.828l-5.643,2.418c-0.164,0.07-0.307,0.184-0.413,0.328l-2.095,2.856  c-3.629,4.95-6.209,10.456-7.675,16.281c-0.852,2.875-1.219,5.947-1.354,9.068C2.029,58.427,2,59.241,2,60.059v0.896V61  C2,61.552,2.448,62,3,62z M5.347,49.097c1.383-4.699,4.049-8.463,8.981-11.138l5.329-0.888L20.586,38l-3.293,3.293l1.414,1.414  L22,39.414L23.586,41l-5.293,5.293l1.414,1.414L25,42.414l1.929,1.929l-0.884,5.303c-4.135,6.757-11.353,10.146-22.04,10.345  c0.01-0.939,0.043-1.849,0.09-2.745C4.265,54.476,4.683,51.752,5.347,49.097z M20.43,25.016l3.666-3.506l8.49,8.49L29,33.586  l-3.293-3.293l-4-4L20.43,25.016z M31.586,39L28,42.586L21.414,36L25,32.414L31.586,39z M20,34.586l-4.249-4.249l5.02-2.151  L23.586,31L20,34.586z M30.552,51.288c-2.079,1.525-4.264,2.85-6.529,3.984c1.47-1.374,2.751-2.953,3.834-4.758  c0.064-0.108,0.108-0.227,0.129-0.35l0.681-4.084l3.802,3.802L30.552,51.288z M33.663,48.249L29.414,44L33,40.414l2.814,2.814  L33.663,48.249z M58.859,39.727L44.313,54.272l-4.116-9.055l9.208-9.208c0.545-0.545,1.071-1.105,1.583-1.673  c0.039-0.044,0.076-0.09,0.116-0.134c1.542-1.727,2.927-3.561,4.156-5.481L58.859,39.727z M60,4v1.603  c0,7.165-1.836,14.043-5.267,20.116c-0.026,0.034-0.057,0.063-0.078,0.101c-1.336,2.356-2.893,4.557-4.638,6.582  c-0.091,0.105-0.18,0.212-0.273,0.316c-0.566,0.644-1.148,1.273-1.753,1.878L44,38.586l-4.293-4.293l-1.414,1.414L42.586,40  L39,43.586l-1.293-1.293l-4-4L30.414,35L34,31.414l2.293,2.293l1.414-1.414L35.414,30l2.293-2.293l-1.414-1.414L34,28.586  l-8.459-8.459l4.971-4.756c0.012-0.012,0.025-0.022,0.037-0.034c0.54-0.515,1.097-1.013,1.664-1.498  c0.141-0.12,0.285-0.235,0.427-0.354c0.475-0.395,0.957-0.781,1.449-1.154c0.119-0.091,0.239-0.18,0.359-0.27  c1.264-0.936,2.579-1.805,3.944-2.591c0.019-0.011,0.033-0.028,0.052-0.041C44.598,5.891,51.598,4,58.853,4H60z M25.24,5.147  l10.333,3.69c-2.283,1.474-4.441,3.174-6.443,5.088L18.798,23.81l-9.027-4.103L25.24,5.147z M12.712,33.448l1.405-1.916l3.802,3.802  l-4.084,0.681c-0.107,0.018-0.21,0.053-0.306,0.104c-1.719,0.917-3.169,1.967-4.421,3.112  C10.156,37.231,11.355,35.298,12.712,33.448z"></path><rect x="13.379" y="49.5" transform="matrix(0.7071 -0.7071 0.7071 0.7071 -31.169 25.7513)" width="4.243" height="2"></rect></svg>