<?xml version="1.0" encoding="utf-8"?>
<!-- Generator: Adobe Illustrator 24.0.0, SVG Export Plug-In . SVG Version: 6.00 Build 0)  -->
<svg version="1.1" id="art" xmlns="http://www.w3.org/2000/svg" xmlns:xlink="http://www.w3.org/1999/xlink" x="0px" y="0px"
	 viewBox="0 0 1520 400" style="enable-background:new 0 0 1520 400;" xml:space="preserve">
<style type="text/css">
	.st0{fill:#EAE5E7;}
	.st1{clip-path:url(#SVGID_2_);}
	.st2{fill:#F6C446;}
	.st3{fill:#F4F2F3;}
	.st4{fill:#FFC9C6;}
</style>
<rect class="st0" width="1520" height="400"/>
<g>
	<defs>
		<rect id="SVGID_1_" x="0.1" y="-0.1" width="1519.8" height="400.2"/>
	</defs>
	<clipPath id="SVGID_2_">
		<use xlink:href="#SVGID_1_"  style="overflow:visible;"/>
	</clipPath>
	<g class="st1">
		<circle class="st2" cx="1469.6" cy="322.9" r="101.7"/>
		<polygon class="st3" points="92.1,79.1 -31.2,315.3 186.4,399.2 393.6,302.7 165.6,248.4 		"/>
		<polygon class="st4" points="1368.2,-46.5 1111.2,41.2 1175.8,145.9 1609.4,135.5 		"/>
		<path d="M1526.6,353c-7-14.8-16.6-28.3-26.5-41.2c-9.7-12.6-19.5-25-29-37.7s-18.8-25.1-29.4-36.7c-5.2-5.7-10.8-11-16.7-16
			c-2.9-2.4-5.8-5-9.1-6.7c-3.1-1.6-6.8-1.9-9.4,0.7c-2.1,2.2-3,5.2-2.6,8.2c0.5,3.6,2.9,6.5,5.5,8.9c5.2,4.7,11.3,8.3,15.8,13.8
			c1,1.3,1.9,2.6,2.6,4.1c0.8,1.8,3.4,0.2,2.6-1.5c-2.8-6-8.6-10.5-13.7-14.4c-4.4-3.4-12-8.3-9.4-14.9c1.2-3.2,4.3-3.7,7.1-2.2
			c3.2,1.9,6.1,4,8.8,6.5c5.7,4.8,11,9.9,16.1,15.4c10.2,11,19.3,23,28.3,35s18.3,24,27.6,36c9.7,12.5,19.1,25.2,26.4,39.3
			c0.9,1.7,1.7,3.3,2.5,5C1524.8,356.2,1527.3,354.7,1526.6,353L1526.6,353z"/>
		<path d="M1482.7,340.1c-14.7-20.3-32.3-38.3-52.1-53.6c-9.9-7.6-20.3-14.5-31.1-20.8c-5.3-3.1-10.7-6-16.2-8.8
			c-2.9-1.5-5.8-2.9-8.7-4.3c-2.6-1.2-5.8-2.2-7.9-4.1c-0.8-0.7-2-2.2-0.8-3.1c1-0.8,2.8-0.4,3.8-0.2c3.4,0.7,6.8,1.3,10.2,2
			c6.9,1.3,14,3.1,19.5,7.7c1.5,1.2,3.6-0.9,2.1-2.1c-5.1-4.3-11.2-6.4-17.7-7.8c-3.3-0.7-6.6-1.3-9.9-1.9c-2.7-0.5-5.8-1.7-8.5-0.7
			c-2.3,0.7-3.6,3.2-2.9,5.5c0.1,0.4,0.3,0.8,0.6,1.2c1.7,2.6,4.7,3.8,7.4,5c6,2.8,11.9,5.7,17.7,8.8c22.9,12.1,44.1,27.3,62.8,45.2
			c10.7,10.3,20.4,21.5,29.1,33.6C1481.2,343.2,1483.8,341.7,1482.7,340.1L1482.7,340.1z"/>
		<path d="M1408.4,215.1c-3.4-4.7-7.2-9-11.5-12.8c-2.4-2.1-5-4.1-7.6-6c-2.8-2.1-5.7-4.5-9-5.9c-2.8-1.1-6.1-1.3-8.1,1.4
			s-1.1,6.1,0.7,8.5c2,2.6,5,4.4,7.3,6.7s4.7,5,6.9,7.6c4.9,5.8,9.7,12,15.6,16.8c1.5,1.2,3.6-0.9,2.1-2.1
			c-9.6-7.7-15.7-18.7-25-26.7c-2.1-1.8-5.2-3.6-5.7-6.6c-0.3-1.2,0.2-2.4,1.1-3.1c1.2-0.7,2.7-0.3,3.9,0.2c2.8,1.2,5.3,3.3,7.8,5.1
			s4.8,3.5,7,5.5c4.4,3.8,8.4,8.1,11.9,12.9C1407,218.2,1409.6,216.7,1408.4,215.1L1408.4,215.1z"/>
		<path d="M1392.6,217c-4.2-2.9-8.7-5.3-13.4-7.2c-2.5-1.1-5.1-2.2-7.7-3.1c-2.1-0.9-4.4-1.5-6.6-1.9c-2.6-0.3-5.7,0.4-6.5,3.2
			c-0.8,3,1.8,5.7,4,7.3c6.4,4.7,13,9.1,19.5,13.6l22.1,15.4c1.6,1.1,3.1-1.5,1.5-2.6l-35.5-24.8l-4.1-2.9c-1.3-0.8-2.6-1.8-3.7-3
			c-0.7-0.8-1.5-2.2-0.5-3c0.8-0.6,2.1-0.5,3.1-0.4c2,0.4,3.9,0.9,5.8,1.7c2.3,0.8,4.5,1.7,6.8,2.7c4.8,2,9.4,4.4,13.7,7.3
			C1392.6,220.7,1394.1,218.1,1392.6,217L1392.6,217z"/>
		<path d="M1396.9,235.6c-6-4-12.5-7.4-19.2-10.1c-3.3-1.3-6.6-2.5-10-3.5c-3.5-1.1-7-2-10.7-2.4c-3-0.3-6.3,0.9-7.1,4.2
			c-0.2,0.7-0.1,1.4,0.1,2.1c0.3,0.9,0.8,1.2,1.7,1.6c1.7,0.8,3.4,1.6,5,2.4c6.8,3.3,13.5,6.8,20,10.6c7.3,4.3,14.5,8.8,21.5,13.6
			c1.6,1.1,3.1-1.5,1.5-2.6c-15-10.3-30.9-19.4-47.4-27l0.7,0.9c-0.7-1.8,1.3-2.8,2.8-2.8c2,0.1,4.1,0.4,6,1c4,0.9,7.9,2.1,11.7,3.5
			c7.7,2.8,15.1,6.6,21.9,11.1C1397,239.2,1398.5,236.6,1396.9,235.6L1396.9,235.6z"/>
		<path d="M1359.1,165c17.8-3.9,36.4-0.5,51.6,9.5c4.2,2.8,8.1,6.1,11.6,9.8c1.3,1.4,3.4-0.7,2.1-2.1
			c-13.1-13.7-31.3-21.6-50.3-21.8c-5.3,0-10.6,0.5-15.8,1.7C1356.5,162.5,1357.2,165.4,1359.1,165z"/>
		<path d="M1334.1,153.6c16.9-3.9,34.5-4,51.4-0.3c17,3.6,33.1,10.7,47.2,20.8c7.9,5.7,15,12.3,21.2,19.8c1.2,1.5,3.3-0.6,2.1-2.1
			c-11.4-13.6-25.7-24.5-41.8-32c-16.1-7.6-33.6-11.7-51.3-12.1c-10-0.2-19.9,0.8-29.7,3.1C1331.4,151.1,1332.2,154,1334.1,153.6
			L1334.1,153.6z"/>
		<circle class="st2" cx="129.3" cy="-52.2" r="101.7"/>
		<path d="M69.3-48.8c7,14.8,16.6,28.3,26.5,41.2c9.7,12.6,19.5,25,29,37.7s18.8,25.2,29.5,36.7c5.2,5.7,10.8,11,16.7,16
			c2.9,2.4,5.8,5,9.1,6.7c3.1,1.6,6.8,1.9,9.4-0.7c2.1-2.2,3-5.2,2.6-8.2c-0.5-3.6-2.9-6.5-5.5-8.8c-5.2-4.7-11.3-8.3-15.8-13.8
			c-1-1.3-1.9-2.6-2.6-4.1c-0.8-1.8-3.4-0.2-2.6,1.5c2.8,6,8.6,10.5,13.7,14.5c4.4,3.4,12,8.3,9.4,14.9c-1.2,3.2-4.3,3.7-7.1,2.2
			c-3.2-1.9-6.1-4-8.8-6.5c-5.7-4.8-11.1-9.9-16.1-15.4c-10.2-11-19.3-23-28.3-35S110.1,5.9,100.8-6c-9.7-12.5-19.1-25.3-26.4-39.3
			c-0.9-1.7-1.7-3.4-2.5-5C71.1-52.1,68.5-50.6,69.3-48.8z"/>
		<path d="M113.2-36c14.7,20.3,32.3,38.3,52.1,53.6c9.9,7.6,20.3,14.5,31.1,20.8c5.3,3.1,10.7,6,16.2,8.8c2.9,1.5,5.8,2.9,8.7,4.3
			c2.6,1.2,5.8,2.2,7.9,4.1c0.8,0.7,2,2.2,0.8,3.1c-1,0.8-2.7,0.4-3.8,0.2c-3.4-0.7-6.8-1.3-10.2-2c-6.9-1.3-14-3.1-19.5-7.7
			c-1.5-1.2-3.6,0.9-2.1,2.1c5.1,4.3,11.2,6.4,17.6,7.8c3.3,0.7,6.6,1.3,9.9,1.9c2.7,0.5,5.8,1.7,8.5,0.7c2.3-0.7,3.6-3.2,2.8-5.6
			c-0.1-0.4-0.3-0.8-0.6-1.2c-1.7-2.6-4.6-3.8-7.4-5c-6-2.8-11.9-5.7-17.7-8.8C184.8,29.2,163.6,14,144.9-3.9
			c-10.7-10.3-20.4-21.5-29.1-33.6C114.7-39,112.1-37.5,113.2-36z"/>
		<path d="M187.5,89c3.3,4.7,7.2,9,11.5,12.8c2.4,2.1,5,4.1,7.6,6c2.8,2.1,5.7,4.5,9,5.9c2.8,1.2,6.1,1.3,8.1-1.4s1.1-6.1-0.7-8.5
			c-2-2.6-4.9-4.4-7.3-6.7s-4.7-5-6.9-7.6c-4.9-5.8-9.6-12-15.6-16.8c-1.5-1.2-3.6,0.9-2.1,2.1c9.6,7.7,15.7,18.7,25,26.7
			c2.1,1.8,5.2,3.6,5.7,6.6c0.3,1.2-0.2,2.4-1.1,3.1c-1.2,0.7-2.7,0.3-3.9-0.2c-2.8-1.2-5.4-3.3-7.8-5.1s-4.8-3.5-7-5.5
			c-4.4-3.8-8.4-8.1-11.9-12.8C188.9,86,186.3,87.5,187.5,89L187.5,89z"/>
		<path d="M203.3,87.2c4.2,2.9,8.7,5.3,13.4,7.2c2.5,1.1,5.1,2.2,7.6,3.1c2.1,0.9,4.4,1.5,6.6,1.9c2.6,0.3,5.7-0.4,6.5-3.2
			c0.9-3-1.8-5.7-4-7.3c-6.4-4.7-13-9.1-19.5-13.6l-22.1-15.4c-1.6-1.1-3.1,1.5-1.5,2.6l35.6,24.8L230,90c1.3,0.8,2.6,1.8,3.6,3
			c0.7,0.8,1.5,2.2,0.5,3c-0.8,0.6-2.1,0.5-3.1,0.4c-2-0.4-3.9-0.9-5.8-1.7c-2.3-0.8-4.5-1.7-6.8-2.7c-4.8-2-9.4-4.4-13.7-7.3
			C203.3,83.5,201.8,86.1,203.3,87.2L203.3,87.2z"/>
		<path d="M199,68.6c6,4,12.5,7.4,19.2,10.1c3.3,1.3,6.6,2.5,10.1,3.5c3.5,1.1,7,1.9,10.7,2.4c3,0.3,6.4-0.9,7.1-4.2
			c0.2-0.7,0.1-1.4-0.1-2.1c-0.3-0.9-0.8-1.2-1.6-1.6c-1.7-0.8-3.3-1.6-5-2.4c-6.8-3.3-13.5-6.8-20-10.6
			c-7.3-4.2-14.5-8.8-21.5-13.6c-1.6-1.1-3.1,1.5-1.5,2.6c15,10.3,30.9,19.4,47.4,27l-0.7-0.9c0.7,1.8-1.3,2.8-2.8,2.8
			c-2-0.1-4.1-0.4-6-1c-4-0.9-7.9-2.1-11.7-3.5c-7.7-2.8-15.1-6.5-22-11.1C198.9,64.9,197.4,67.5,199,68.6L199,68.6z"/>
		<path d="M236.8,139.2c-17.8,3.9-36.4,0.5-51.6-9.5c-4.2-2.8-8.1-6.1-11.6-9.8c-1.3-1.4-3.4,0.7-2.1,2.1
			c13.1,13.7,31.3,21.6,50.3,21.8c5.3,0,10.6-0.5,15.8-1.7C239.5,141.6,238.7,138.7,236.8,139.2z"/>
		<path d="M261.8,150.6c-16.9,3.9-34.5,4-51.4,0.3c-17-3.6-33.1-10.7-47.2-20.8c-7.9-5.7-15-12.3-21.2-19.8
			c-1.2-1.5-3.3,0.7-2.1,2.1c11.4,13.6,25.7,24.5,41.8,32c16.1,7.5,33.6,11.7,51.3,12.1c10,0.2,19.9-0.8,29.7-3.1
			C264.5,153.1,263.7,150.2,261.8,150.6L261.8,150.6z"/>
		<path d="M52.9,483.6c-2.8-15.5-2.8-31.3-2.2-46.9c0.5-15.3,1.4-30.7,1.8-46c0.4-15.2,0.7-30.5,2.4-45.6c0.8-7.4,2-14.8,3.7-22.1
			c0.8-3.6,1.8-7.2,3-10.7c0.8-2.5,1.9-6.2,4.8-6.9c2.7-0.6,5.4,1.6,6.4,3.9c1.5,3.5,0.3,7.7-0.7,11.2c-1.9,6.1-4,12.4-4.1,18.9
			c0,1.5,0.1,2.9,0.4,4.3c0.3,1.9,3.2,1.1,2.9-0.8c-0.5-3.2-0.3-6.5,0.5-9.6c0.7-3.3,1.6-6.7,2.6-9.9c2-6.5,4.3-14.8-2.3-19.5
			c-2.4-1.9-5.8-2.1-8.4-0.5c-2.7,1.8-3.8,5-4.8,7.9c-2.4,7.4-4.2,15.1-5.4,22.8c-2.5,15.7-3.2,31.6-3.6,47.5
			c-0.2,7.8-0.3,15.6-0.6,23.4c-0.3,8.1-0.7,16.2-1.1,24.3c-0.7,16.5-1.1,33,1.1,49.4c0.3,1.9,0.6,3.9,0.9,5.8
			C50.4,486.4,53.3,485.6,52.9,483.6L52.9,483.6z"/>
		<path d="M81.3,448.1c0.3-27.1,4.9-54,13.6-79.6c4.3-12.8,9.5-25.2,15.5-37.2c3.1-6.2,6.3-12.2,9.7-18.2c1.4-2.4,2.9-4.7,3.1-7.5
			c0.2-2.5-1.2-4.9-3.8-5.2c-3.4-0.4-5.9,3-7.9,5.2c-2.3,2.4-4.7,4.8-6.9,7.2c-4.6,4.9-8.6,10.4-10.4,17c-0.2,0.8,0.4,1.6,1.2,1.8
			c0.7,0.1,1.4-0.3,1.7-1c1.4-5.6,4.7-10.3,8.6-14.6c1.9-2.1,3.9-4.1,5.8-6.1c0.9-1,1.9-1.9,2.8-2.9c0.9-1.2,2-2.2,3.2-3.1
			c0.8-0.5,2.2-1,2.7,0.2c0.3,1,0.2,2-0.2,2.9c-0.8,2.7-2.7,5.2-4.1,7.6c-3.2,5.7-6.3,11.5-9.2,17.5c-11.3,22.9-19.4,47.3-24.1,72.4
			c-2.6,14.4-4,29-4.1,43.6c0,0.8,0.7,1.5,1.5,1.5S81.3,449,81.3,448.1z"/>
		<path d="M69.5,303.2c0-5.2,0.6-10.4,1.8-15.5c0.6-2.8,1.4-5.5,2.3-8.3c0.9-3.1,2-6.1,3.2-9.1c0.8-1.7,2.4-4.9,4.8-4.1
			c3.3,1,2.4,5.6,1.7,8c-1.5,5.9-2.4,11.9-2.8,18c-0.6,6.9-0.9,13.9-2.8,20.5c-0.2,0.8,0.3,1.6,1.1,1.8c0.8,0.2,1.6-0.3,1.8-1.1
			c1.8-6.5,2.2-13.4,2.8-20.1c0.3-3.5,0.6-7,1.1-10.5c0.2-1.6,0.5-3.2,0.9-4.8c0.4-1.8,1-3.5,1.3-5.3c0.6-3.2,0.2-6.7-2.6-8.8
			c-2.5-1.8-5.6-1.1-7.6,1c-2.2,2.4-3.2,5.7-4.2,8.7c-1.1,3.2-2.2,6.4-3,9.7c-1.7,6.4-2.6,12.9-2.7,19.5
			C66.6,305.1,69.6,305.1,69.5,303.2L69.5,303.2z"/>
		<path d="M83.4,296.7c1.6-4.3,3.6-8.4,6-12.3c2.2-4,4.8-7.7,7.6-11.2c0.8-1.1,1.9-2,3.2-2.4c1.2-0.2,1.7,0.6,1.8,1.6
			c0.3,2.6-1.3,5.5-2.1,7.9l-7.3,20.4l-8.2,23c-0.7,1.8,2.2,2.6,2.9,0.8l16.3-45.5c0.9-2.5,2.1-5.4,1.2-8.1
			c-0.8-2.4-3.4-3.7-5.8-2.9c-0.3,0.1-0.6,0.2-0.9,0.4c-2.3,1.2-3.9,3.5-5.4,5.5s-3,4.3-4.4,6.6c-3,4.9-6,10-7.8,15.5
			C79.9,297.8,82.8,298.5,83.4,296.7L83.4,296.7z"/>
		<path d="M90.6,314.4c3-7.8,6.9-15.2,11.7-22c2.4-3.4,5-6.7,7.8-9.8c1.2-1.4,2.5-3,4.1-3.9c1.1-0.6,3.1-0.8,3.5,0.8l0.2-1.2
			c-9.1,15.9-16.9,32.6-23.2,49.8c-0.7,1.8,2.2,2.6,2.9,0.8c5.3-14.7,11.8-28.9,19.2-42.6c0.9-1.6,1.8-3.3,2.7-4.9
			c0.6-0.7,0.9-1.5,1.1-2.4c0-0.8-0.4-1.5-0.9-2.1c-1.8-2.2-5.1-2.1-7.4-0.7c-2.8,1.8-5.1,4.9-7.2,7.4c-2.3,2.8-4.4,5.6-6.4,8.6
			c-4.4,6.7-8.1,13.8-11,21.3C87,315.4,89.9,316.2,90.6,314.4L90.6,314.4z"/>
		<path d="M76.8,231.1c-17.6,7.4-31.4,21.5-38.4,39.2c-1.9,4.9-3.3,10-4,15.3c-0.2,0.8,0.3,1.6,1,1.8c0.8,0.2,1.6-0.2,1.8-1
			c2.6-18,12.4-34.2,27.1-44.9c4.1-3,8.6-5.5,13.2-7.5C79.4,233.3,78.6,230.4,76.8,231.1z"/>
		<path d="M90.6,207.3c-16.4,6.8-31.2,17.1-43.3,30.1c-12.1,13-21.3,28.5-27.2,45.3c-3.3,9.5-5.3,19.4-6.1,29.4
			c-0.1,1.9,2.9,1.9,3,0c1.4-17.2,6.6-33.9,15.1-48.9c8.5-15.1,20.1-28.3,33.9-38.7c7.8-5.8,16.3-10.6,25.2-14.3
			C93.2,209.4,92.4,206.5,90.6,207.3L90.6,207.3z"/>
		<path d="M1293.4,460.7c-14.7-5.8-28.3-14.2-41.5-22.9c-12.7-8.5-25.2-17.2-38-25.5c-12.5-8.1-25.1-16.2-36.9-25.4
			c-5.8-4.5-11.3-9.2-16.5-14.3c-2.6-2.5-5.1-5.1-7.4-7.9c-2-2.3-5.7-5.8-4.3-9.1c1-2.5,4.3-3.5,6.8-3.1c3.4,0.6,6.2,3.3,8.4,5.8
			c4.5,5,8.8,10.3,14.4,14c1.3,0.8,2.6,1.5,4,2.1c1.8,0.7,2.6-2.2,0.8-2.9c-3.1-1.4-5.9-3.3-8.3-5.8c-2.6-2.4-4.9-5-7.2-7.7
			c-4.3-4.9-10.2-10.8-17.2-7.8c-2.9,1.1-4.9,3.8-4.9,7c0.1,3.8,3,6.9,5.4,9.6c5,5.7,10.5,11,16.3,16c11.8,10.1,24.8,18.8,37.8,27.3
			c6.3,4.1,12.7,8.2,19.1,12.4c6.8,4.5,13.6,9.2,20.3,13.8c13.6,9.2,27.5,18.3,42.6,24.9c1.8,0.8,3.7,1.6,5.6,2.3
			S1295.1,461.4,1293.4,460.7L1293.4,460.7z"/>
		<path d="M1278.8,417.7c-22.3-14-42.3-31.4-59.2-51.5c-8.4-9.9-16.1-20.4-23.1-31.4c-3.5-5.5-6.9-11.1-10.1-16.9
			c-1.6-2.8-2.9-6-4.9-8.5c-1.7-2.1-4.4-4.1-7.1-2.6c-3.1,1.7-2.5,5.7-1.7,8.5c1,3.4,1.8,6.9,2.7,10.3c1.9,7,4.4,14,9.5,19.3
			c1.3,1.4,3.4-0.7,2.1-2.1c-4.3-4.5-6.6-10.2-8.2-16.1c-0.9-3-1.6-6.1-2.4-9.2c-0.4-1.4-0.8-2.7-1.1-4c-0.3-1-0.6-2.6,0-3.6
			c1.7-2.6,4.8,2.8,5.4,3.9c1.5,2.7,3,5.4,4.5,8.1c3.1,5.5,6.4,10.8,9.8,16.1c13.5,20.9,29.7,40,48.2,56.7
			c10.6,9.5,22.1,18,34.1,25.6C1279,421.3,1280.5,418.7,1278.8,417.7L1278.8,417.7z"/>
		<path d="M1150.7,350.1c-3.4-2.9-6.7-6-9.7-9.4c-2.6-2.9-4.8-6-7.2-9c-1.7-2.2-3.8-4.3-4.9-6.9c-0.6-1-0.7-2.2-0.3-3.3
			c0.6-1.1,1.8-1.6,3-1.4c2.8,0.2,4.8,2.9,6.6,4.8l7,7.7l15.7,17.3c1.3,1.4,3.4-0.7,2.1-2.1l-15.7-17.3l-7.7-8.5
			c-2-2.2-4.2-4.5-7.3-4.9c-2.9-0.4-5.9,0.9-6.8,3.8s0.7,5.8,2.4,8c2.9,4,6,7.9,9.2,11.7c3.5,4.1,7.3,7.9,11.4,11.4
			C1149.9,353.5,1152.1,351.4,1150.7,350.1L1150.7,350.1z"/>
		<path d="M1146.5,329.5c-3.2-3.9-5.9-8.2-7.8-12.9c-0.8-2-1.8-4.2-1.9-6.4c-0.1-0.8,0.1-1.5,0.6-2.1c0.8-0.6,2,0,2.7,0.5
			c2,1.4,3.5,3.8,5,5.7l5.6,7l10.7,13.4l12.3,15.4c1.2,1.5,3.3-0.6,2.1-2.1l-24.6-30.7l-6.2-7.8c-1.6-2-3.5-4.1-6.1-4.5
			c-2.3-0.4-4.5,1.1-5,3.3c-0.6,2.2,0.2,4.6,0.9,6.7c2.2,6.1,5.4,11.7,9.5,16.6C1145.6,333.1,1147.7,331,1146.5,329.5L1146.5,329.5z
			"/>
		<path d="M1169.2,340.1c-4.9-6.5-9.1-13.5-12.4-20.9c-1.6-3.7-3.1-7.5-4.3-11.3c-0.8-2-1.3-4-1.6-6.1c-0.1-1.4,0.6-3.9,2.5-3.2
			l-0.9-0.7c8.8,16.1,18.9,31.5,30.3,45.9c1.2,1.5,3.3-0.6,2.1-2.1c-9.3-11.8-17.8-24.2-25.3-37.2c-0.9-1.6-1.8-3.2-2.8-4.8
			s-1.4-3.8-3.3-4.1c-3.2-0.5-5.5,2.5-5.7,5.4c0,1.6,0.2,3.3,0.8,4.9c0.5,1.8,1.1,3.6,1.7,5.5c1.1,3.3,2.4,6.6,3.8,9.7
			c3.3,7.3,7.4,14.3,12.3,20.7C1167.8,343.2,1170.4,341.7,1169.2,340.1L1169.2,340.1z"/>
		<path d="M1118.2,378.7c-14-14.6-22.7-33.5-24.6-53.6c-0.5-5.6-0.5-11.2,0-16.8c0.2-1.7-2.5-2-2.9-0.4c-2.4,9.7-0.8,20.1,1.8,29.6
			c2.9,10.8,7.5,21,13.4,30.5c2.9,4.7,6.3,9,10.2,12.8C1117.5,382.2,1119.6,380,1118.2,378.7c-7-6.8-12.2-15.5-16.3-24.3
			c-4.5-9.6-7.9-20-9-30.5c-0.6-5.1-0.4-10.2,0.7-15.2l-3-0.4c-1.9,20.7,3.2,41.3,14.5,58.8c3.2,4.9,6.9,9.5,10.9,13.8
			C1117.4,382.2,1119.5,380.1,1118.2,378.7z"/>
		<path d="M1086.7,283.5c-14.3,11.5-20.1,31.1-17.9,48.9c2.5,20.6,14,38.8,27.7,53.8c8.2,9,17.3,17,26.3,25.1
			c1.4,1.3,3.6-0.8,2.1-2.1c-15.4-13.7-31.1-27.7-41.8-45.5c-9.7-16.1-14.9-35.4-9.8-53.9c2.5-9.5,7.9-17.9,15.4-24.2
			C1090.3,284.4,1088.2,282.3,1086.7,283.5L1086.7,283.5z"/>
		<path d="M1103-97.2c13.4,8,25.3,18.2,36.7,28.7c11.2,10.3,22,20.9,33.3,31.1s22.6,20.4,32.9,31.5c5.1,5.4,9.9,11.2,14.4,17.2
			c2.2,3,4.3,6.1,6.3,9.3c1.6,2.6,4.6,6.8,2.2,9.7c-1.7,2-4.9,2.3-7.2,1.4c-3.2-1.3-5.4-4.4-7.2-7.3c-3.5-5.5-6.9-11.3-11.7-15.7
			c-1.1-1-2.3-1.9-3.6-2.6c-0.7-0.4-1.6-0.1-2,0.6c-0.4,0.7-0.1,1.6,0.5,2c2.8,1.8,5.2,4.1,7.2,6.8c2.1,2.7,4,5.6,5.8,8.5
			c3.4,5.5,7.9,12.3,15.4,11.1c3-0.4,5.5-2.4,6.5-5.3c1.1-3.9-1.3-7.7-3.3-10.9c-4.1-6.5-8.6-12.7-13.6-18.6
			c-10.2-12.1-21.8-22.9-33.5-33.6c-5.7-5.2-11.5-10.4-17.2-15.7c-5.9-5.5-11.7-11.1-17.5-16.6c-11.8-11.1-23.9-22.1-37.5-31
			c-1.7-1.1-3.4-2.1-5.1-3.2c-0.7-0.4-1.6-0.1-2,0.6C1102.1-98.5,1102.4-97.6,1103-97.2L1103-97.2z"/>
		<path d="M1110.5-52.5c19.7,17.4,36.6,37.7,50.2,60.2c6.7,11.2,12.7,22.8,17.8,34.7c2.7,6.1,5.1,12.3,7.4,18.6
			c1.1,2.9,1.8,6.1,3.3,8.9c1.2,2.2,3.5,4.7,6.3,4c3.2-0.8,3.8-4.3,3.6-7.1c-0.3-3.7-0.7-7.3-1.1-10.9c-0.7-7.5-2-15-6.3-21.3
			c-1.1-1.6-3.7-0.1-2.6,1.5c3.7,5.4,5.1,11.8,5.7,18.2c0.3,3.2,0.6,6.3,0.9,9.5c0.1,1.3,0.4,2.7,0.4,4.1c0,1,0,2.4-0.9,3
			c-2.2,1.3-3.9-3.5-4.4-4.8c-1-3-2.1-5.9-3.2-8.9c-2.2-6-4.6-11.9-7.2-17.7c-9.9-22.8-22.8-44.1-38.4-63.5
			c-8.9-11-18.8-21.3-29.4-30.6C1111.2-55.9,1109-53.8,1110.5-52.5L1110.5-52.5z"/>
		<path d="M1226.4,35.1c2.9,3.4,5.6,7,8,10.8c2.1,3.3,3.9,6.9,5.8,10.3c1.3,2.3,2.8,4.6,3.5,7.2c0.6,2.3-0.4,4.7-3.2,4.2
			s-4.5-3.6-5.9-5.8L1229,53l-12.8-19.6c-1-1.6-3.7-0.1-2.6,1.5l12.8,19.6c2.1,3.3,4.2,6.5,6.3,9.8c1.7,2.5,3.6,5.2,6.7,6.1
			c2.7,0.9,5.7-0.3,7-2.9c1.2-2.6,0.2-5.6-1-8c-1.3-2.7-2.9-5.2-4.3-7.8c-1-1.8-2-3.7-3-5.4c-2.9-4.6-6.1-9.1-9.6-13.2
			C1227.3,31.5,1225.2,33.6,1226.4,35.1L1226.4,35.1z"/>
		<path d="M1227,55.8c2.6,4.4,4.6,9.2,5.8,14.2c0.5,2.1,1.2,4.5,0.8,6.7c-0.1,0.7-0.4,1.6-1.1,1.8c-0.9,0.3-1.8-0.4-2.4-1
			c-1.7-1.7-2.8-4.2-3.9-6.3l-4.4-7.8l-8.4-15l-9.7-17.1c-0.4-0.7-1.3-1-2.1-0.5c-0.7,0.4-1,1.3-0.5,2.1l0,0l19.3,34.3l4.9,8.7
			c1.2,2.2,2.7,4.5,5,5.5c2.1,0.9,4.5,0,5.6-2c1.1-2,0.8-4.4,0.5-6.6c-1.1-6.5-3.4-12.7-6.8-18.4c-0.4-0.7-1.4-0.9-2.1-0.5
			C1226.8,54.1,1226.6,55,1227,55.8L1227,55.8z"/>
		<path d="M1206.4,42c5.8,10.9,9.7,22.8,11.3,35.1c0.4,1.9,0.5,3.9,0.4,5.9c-0.2,1.2-1.3,3.2-2.8,2.4l0.7,0.9
			c-6-17.3-13.6-34.1-22.5-50.2c-0.9-1.7-3.5-0.2-2.6,1.5c7.4,13.2,13.8,26.9,19.2,41.1c0.7,1.8,1.3,3.5,2,5.3
			c0.5,1.5,0.8,3.7,2.4,4.3c2.8,1,5.6-1.1,6.4-3.7c0.4-1.6,0.5-3.3,0.2-5c-0.2-1.8-0.4-3.6-0.7-5.3c-0.6-3.6-1.3-7.1-2.2-10.7
			c-2.1-8-5.2-15.8-9.1-23.1C1208.2,38.8,1205.6,40.3,1206.4,42L1206.4,42z"/>
		<path d="M1262.8,11.8c11.4,16.6,17,36.5,15.8,56.7c-0.3,5.6-1.2,11.2-2.7,16.7c-0.4,1.6,2,2.8,2.7,1.2c4-9.2,4.1-19.8,3.1-29.7
			c-1.2-11.1-4-21.9-8.4-32.2c-2.1-5-4.7-9.8-7.9-14.2C1264.3,8.8,1261.7,10.3,1262.8,11.8c5.9,7.9,9.7,17.4,12.3,26.8
			c2.9,10.2,4.6,20.9,4,31.5c-0.2,5.1-1.2,10-3.1,14.7l2.7,1.2c5.2-20.1,3.5-41.3-4.7-60.4c-2.3-5.4-5.2-10.5-8.6-15.3
			C1264.3,8.7,1261.7,10.2,1262.8,11.8z"/>
		<path d="M1278.6,111c15.6-8.9,24.4-26.5,25.6-44.1c1.4-21.3-7.4-41.9-18.9-59.3c-6.6-10.1-14.3-19.5-21.9-28.8
			c-1.2-1.5-3.3,0.6-2.1,2.1c12.9,15.9,26.2,32.2,33.8,51.5c7,17.6,9.1,37.8,0.7,55.3c-4,8.7-10.5,15.9-18.7,20.7
			c-0.7,0.4-1,1.3-0.5,2.1C1276.9,111.2,1277.9,111.4,1278.6,111C1278.6,111,1278.6,111,1278.6,111z"/>
	</g>
</g>
</svg>
